<svg width="102" height="105" viewBox="0 0 102 105" fill="none" xmlns="http://www.w3.org/2000/svg">
<g clip-path="url(#clip0_98_1651)">
<path d="M58.6134 104.688C58.8845 104.581 59.1656 104.519 59.4537 104.48C62.4645 103.452 65.2325 101.939 67.779 99.9312C67.921 99.2975 67.6371 98.7135 66.8833 97.8633C65.6455 96.4676 64.2644 95.1929 62.8775 93.9396C60.7795 92.044 58.6361 90.1996 56.4828 88.3681C55.8724 87.8496 55.7475 87.3384 56.0257 86.5963C56.6985 84.8047 57.2479 82.9632 57.9633 81.19C57.1669 81.5831 56.2798 81.8053 55.4167 81.8053C55.174 81.8053 54.9355 81.7896 54.7027 81.7597C54.6729 81.764 54.6431 81.7654 54.6133 81.7683C54.4784 81.8081 54.3436 81.8423 54.2073 81.8722C53.4607 82.2098 52.6445 82.4006 51.8495 82.4006C51.7332 82.4006 51.6196 82.3963 51.506 82.3892C51.0419 83.849 50.616 85.3231 50.2356 86.8142C49.5897 89.3508 50.078 90.6397 52.2186 92.165C54.0994 93.5052 55.9888 94.8311 57.8582 96.187C58.9356 96.9689 59.9789 97.7992 61.16 98.7021C60.7611 98.9001 60.5978 99.0212 60.4176 99.0639C57.8767 99.6592 55.465 100.584 53.3627 102.146C52.829 102.543 52.4656 103.292 52.2711 103.953C52.2158 104.14 53.0646 104.897 53.4493 104.86C55.1655 104.698 56.8916 105.369 58.6134 104.688Z" fill="black"/>
<path d="M9.80722 21.7634C10.1507 21.6865 10.4928 21.6082 11.0422 21.4842C10.7597 20.718 10.5383 20.0116 10.2444 19.338C9.59146 17.8397 8.859 16.3756 8.24295 14.8631C7.90085 14.0242 7.17975 12.8948 8.31108 12.3166C9.39415 11.7626 10.2104 12.778 10.6405 13.671C11.6398 15.7475 12.5199 17.8824 13.3957 20.0159C13.7278 20.8234 13.9209 21.6879 14.1721 22.5282C14.4333 23.3998 14.0941 23.9054 13.2253 24.1076C12.0599 24.3782 10.8761 24.6375 10.1593 25.7441C9.64824 26.5317 9.07051 27.5087 9.76747 28.2706C10.4928 29.0639 11.5915 29.5154 12.5426 30.0908C12.6079 30.1306 12.7995 29.9583 13.0806 29.8016C12.5411 29.3886 12.0599 29.0739 11.6412 28.6908C10.6376 27.775 10.7114 26.9304 11.8442 26.1756C12.1735 25.9563 12.527 25.7583 12.896 25.6202C14.0912 25.173 14.8336 24.3982 15.2368 23.1292C15.7307 21.5782 16.7911 20.3776 18.459 20.0899C19.1049 19.9789 19.9764 20.2267 20.5087 20.6269C21.2653 21.1951 21.1148 22.2149 20.2305 22.5481C18.1864 23.3201 17.5434 24.8653 17.2425 26.8749C17.0736 28.0029 16.3283 29.0368 15.8954 30.1349C15.7194 30.5793 15.4965 31.1333 15.6143 31.5449C16.5072 34.6482 17.4682 37.7317 18.4505 40.8065C18.53 41.0543 18.9203 41.3548 19.1801 41.3691C21.6429 41.5001 24.1071 41.6069 26.5728 41.6283C26.8978 41.6311 27.3748 41.1811 27.5323 40.8293C28.5388 38.5762 29.6516 36.3487 30.394 34.0059C31.7227 29.8116 34.7078 26.8023 37.3623 23.5394C37.5766 23.2759 37.825 23.0395 37.9428 22.5382C37.0542 22.7732 36.1756 23.0751 35.2714 23.2175C34.8072 23.2916 34.299 23.0822 33.8121 23.001C33.9413 22.4171 33.8789 21.5982 34.2408 21.3005C35.0201 20.6611 35.9712 20.0301 36.935 19.8592C39.8819 19.3351 42.3858 17.9522 44.9963 16.5636C52.3719 12.6413 60.1493 13.3876 66.7187 18.7996C71.1815 22.4769 74.0177 27.2808 76.1412 32.5632C76.4592 33.3536 76.5287 34.2438 76.7431 35.225C77.7665 34.6682 78.7602 34.107 79.7737 33.5829C80.6211 33.1443 81.4671 32.6914 82.3529 32.3453C84.4154 31.5392 86.1202 32.2826 86.7803 34.4218C87.5085 36.7817 87.9173 39.2427 88.6937 41.5827C89.5454 44.1492 90.6015 46.6529 91.6775 49.1367C92.2978 50.5681 93.0743 50.6222 94.0636 49.3974C94.5605 48.7821 94.9054 48.0458 95.3554 47.3892C95.9317 46.5504 96.6613 45.9721 97.7671 46.257C98.6429 46.482 99.3342 47.0759 99.0517 47.9646C98.2966 50.3359 97.7515 52.8539 95.5924 54.496C92.1204 57.1365 87.7356 55.9658 86.2465 51.847C85.2728 49.1538 84.5999 46.3496 83.7922 43.5951C83.2883 41.8775 82.7816 40.1599 82.2337 38.2971C81.1293 39.0405 80.0505 39.68 79.071 40.4448C77.2555 41.8633 75.4996 43.3573 73.7153 44.8143C73.4073 45.0649 73.095 45.317 72.7557 45.5221C71.5492 46.2527 70.4633 46.2128 69.6897 45.4338C68.8522 44.5921 68.5739 43.155 69.3376 42.1282C70.256 40.892 71.376 39.7968 72.4761 38.7101C73.5137 37.6847 74.6408 36.7475 75.5479 35.9329C74.5798 33.9732 73.66 32.1373 72.7643 30.2901C69.5236 23.6049 64.906 18.4322 57.4778 16.4098C54.6644 15.6436 51.8808 15.8486 49.2093 17.072C47.3313 17.9323 45.4633 18.8138 43.6123 19.731C43.2901 19.8906 42.8642 20.2637 42.85 20.5557C42.7904 21.8389 41.8152 22.1095 40.9777 22.7361C39.5866 23.7787 38.4652 25.1815 37.3254 26.6399C40.4752 26.0389 43.0686 26.7866 45.2745 28.9528C46.7238 30.3756 47.293 32.1573 47.4903 34.0956C47.8565 37.7032 45.3157 41.5129 41.8507 42.6053C37.8676 43.86 34.0492 41.8134 31.4061 36.9612C31.2926 37.0665 31.1478 37.1406 31.0981 37.2545C27.4983 45.7058 26.1512 54.4547 28.323 63.4629C30.7574 73.562 37.0897 79.9538 47.266 82.3465C47.7685 82.4647 48.2852 82.5245 48.7977 82.5872C49.2632 82.6442 49.7317 82.6684 50.1973 82.7068C50.0837 84.4301 49.6834 84.8118 48.1561 84.5583C44.217 83.9017 40.5504 82.5089 37.2885 80.1817C36.0918 79.3272 34.9023 79.0651 33.4857 79.35C30.4565 79.9595 27.4131 80.4993 24.2051 81.1003C24.4492 81.5874 24.5074 81.8153 24.6479 81.9691C26.3102 83.7921 27.9695 85.6179 29.663 87.411C30.6737 88.482 31.7454 89.4975 32.7873 90.5386C34.2238 91.9727 34.4183 92.766 33.1223 94.2415C30.8667 96.8079 28.4621 99.2448 26.0547 101.67C25.4287 102.301 24.5145 102.989 23.6089 102.325C22.6862 101.649 23.396 100.699 23.6671 99.9241C24.5954 97.2651 25.951 94.8425 27.9994 92.7247C25.8886 90.6155 23.8005 88.6102 21.8118 86.5095C20.8608 85.504 19.9949 84.3831 19.2724 83.201C17.5221 80.3398 18.3483 77.7306 21.5066 76.5471C23.9183 75.6442 26.4535 75.0716 28.9348 74.3567C29.4274 74.2143 29.9256 74.0946 30.6552 73.9038C24.9844 65.5935 24.5841 56.4273 25.8275 46.8765C24.2434 46.9876 22.716 47.1058 21.1872 47.197C19.9963 47.2668 18.8039 47.3508 17.613 47.3394C15.7094 47.3209 14.6775 46.6543 14.1239 44.8456C13.0039 41.1854 12.0301 37.481 10.9244 33.8165C10.754 33.2511 10.26 32.7412 9.81432 32.3125C8.96404 31.495 7.75606 30.9154 7.20814 29.9469C6.02287 27.849 4.23574 26.704 2.14483 25.8124C1.53304 25.5518 0.912721 25.1986 0.454227 24.7329C0.150457 24.4238 -0.0936945 23.753 0.0425761 23.4012C0.16891 23.0737 0.836069 22.7675 1.25908 22.7774C3.37411 22.8244 4.87735 24.2031 6.38484 25.2726C7.54598 24.0863 8.70002 22.907 9.85406 21.7292C9.8498 21.7235 9.80722 21.7634 9.80722 21.7634ZM45.6393 34.5158C45.6294 30.9894 42.8486 28.1382 39.4276 28.1467C35.9527 28.1553 32.8384 31.119 32.837 34.4189C32.8341 38.2145 35.8179 41.2438 39.5242 41.2082C43.0814 41.174 45.6507 38.3626 45.6393 34.5158ZM91.4192 53.7369C94.0111 53.5447 96.2284 51.4952 96.2397 48.9801C95.442 50.0141 94.8586 50.9626 94.0849 51.716C93.29 52.4908 92.3092 53.0761 91.4192 53.7369Z" fill="black"/>
<path d="M65.7932 34.2124C65.5959 32.2741 65.0252 30.4924 63.5774 29.0696C61.3715 26.9019 58.7781 26.1542 55.6282 26.7567C55.6382 26.7438 55.6481 26.731 55.658 26.7182C55.6566 26.7182 55.6552 26.7182 55.6524 26.7182C55.2024 26.9532 54.7212 27.1312 54.2286 27.2452C54.0824 27.3178 53.9334 27.3847 53.7786 27.4346C53.7063 27.4574 53.641 27.4602 53.5813 27.4474C53.0803 27.7052 52.6005 28.0057 52.1122 28.292C51.8481 28.507 51.5997 28.742 51.3669 28.9912C50.8034 29.7845 50.281 30.6077 49.8225 31.4765C49.5131 32.3154 49.2618 33.1699 49.1511 34.0458C49.1469 34.3235 49.1469 34.6012 49.1454 34.8804C49.4279 35.554 49.5997 36.2875 49.6338 37.0523C49.6352 37.0808 49.6338 37.1107 49.6352 37.1392C49.6607 37.1192 49.6863 37.0993 49.7104 37.0765C52.3535 41.9302 56.1733 43.9768 60.155 42.7221C63.6171 41.6311 66.1594 37.8214 65.7932 34.2124ZM57.827 41.3249C54.1207 41.3605 51.1384 38.3312 51.1398 34.5357C51.1412 31.2344 54.2556 28.2706 57.7305 28.2635C61.1515 28.2549 63.9322 31.1062 63.9422 34.6325C63.9535 38.4793 61.3843 41.2907 57.827 41.3249Z" fill="black"/>
<path d="M56.9696 83.906C57.096 82.5801 57.7787 81.6301 58.9683 81.0106C65.7108 77.5042 70.6577 72.3499 73.7451 65.7758C76.5287 59.8496 77.4954 53.509 77.0823 47.0132C77.0256 46.1231 76.9801 45.2315 76.885 44.3442C76.7743 43.3088 77.3932 42.8203 78.6324 42.2635C80.3401 52.6218 79.0937 62.2736 73.3576 71.1095C69.0424 77.7534 61.1344 83.5884 56.9696 83.906Z" fill="black"/>
<path d="M85.9626 84.3646C85.4445 84 84.3331 83.4801 83.5864 82.637C82.0335 80.8795 80.6708 78.954 79.2414 77.0897C79.0497 76.8405 78.8496 76.5571 78.7829 76.2608C78.7119 75.9432 78.692 75.5259 78.8482 75.2767C78.9447 75.1229 79.4642 75.0844 79.7027 75.1955C82.2478 76.3705 85.1393 76.8974 87.1905 79.0053C87.8392 79.6718 88.4396 80.4822 88.7704 81.341C89.3651 82.8777 88.1827 84.4159 85.9626 84.3646ZM85.1181 80.1646C84.9718 80.3326 84.8242 80.5021 84.678 80.6702C85.101 81.0989 85.524 81.5276 85.9456 81.9577C86.1273 81.6743 86.5006 81.1758 86.4609 81.1402C86.0506 80.7713 85.5751 80.4779 85.1181 80.1646Z" fill="black"/>
<path d="M71.7082 84.7206C72.1723 85.3729 72.5499 85.7418 72.7345 86.1904C73.5791 88.2513 74.4009 90.3235 75.1575 92.4185C75.396 93.0793 75.4769 93.8199 75.5025 94.5292C75.545 95.7056 74.7757 96.7125 73.7664 96.9546C72.7259 97.2039 71.4683 96.5929 71.1091 95.4478C70.7798 94.401 70.5286 93.2688 70.5555 92.1821C70.6038 90.2366 70.8622 88.2954 71.0921 86.3585C71.1475 85.8871 71.4271 85.4441 71.7082 84.7206ZM72.6677 94.4024C72.8721 94.4124 73.0751 94.4224 73.2795 94.4309C73.325 93.9638 73.3959 93.4952 73.3846 93.0281C73.3832 92.9768 72.919 92.9369 72.6677 92.8913C72.6677 93.3955 72.6677 93.8983 72.6677 94.4024Z" fill="black"/>
<path d="M54.6559 17.3811C55.8227 17.8098 57.0349 18.0647 58.0328 18.6728C59.2025 19.3864 59.1315 20.4018 58.0854 21.3147C55.9036 23.2203 52.1406 23.0722 50.1235 21.0014C49.1724 20.0244 49.3271 18.8808 50.5777 18.4492C51.8609 18.0077 53.208 17.7514 54.6559 17.3811Z" fill="black"/>
<path d="M25.7821 18.2797C24.5912 17.767 23.4442 17.5349 22.6536 16.874C21.3562 15.7888 20.1993 14.4942 19.1744 13.1426C18.8011 12.6513 18.9729 11.744 18.8962 11.0277C19.6045 10.9636 20.381 10.6801 21.0098 10.8767C23.237 11.5689 25.8276 15.4441 25.7821 18.2797Z" fill="black"/>
<path d="M86.1798 60.1872C86.1245 61.0374 86.1472 61.5644 86.0308 62.0586C85.974 62.2993 85.5992 62.6781 85.4672 62.6411C85.1947 62.5642 84.8157 62.2722 84.7845 62.0301C84.6241 60.7754 84.5275 59.5093 84.485 58.2446C84.475 57.9683 84.7759 57.682 84.9321 57.4C85.2117 57.5851 85.6688 57.719 85.7412 57.9668C85.9811 58.7886 86.0833 59.6545 86.1798 60.1872Z" fill="black"/>
<path d="M57.2692 41.4617C53.6679 41.4018 51.0092 38.532 51.0901 34.7921C51.1625 31.4566 54.2712 28.1396 57.2919 28.1766C61.0294 28.2222 63.9663 31.2287 63.8826 34.9245C63.8016 38.4936 60.7412 41.52 57.2692 41.4617ZM60.8335 34.6226C60.8534 33.0702 59.2863 31.4623 57.7064 31.4167C56.1208 31.3711 54.6985 32.9377 54.6616 34.7736C54.6275 36.4655 55.949 37.9011 57.5559 37.9168C59.2948 37.9339 60.8108 36.4114 60.8335 34.6226Z" fill="white"/>
<path d="M49.2491 57.2305C47.8523 57.108 46.2582 56.7135 45.0162 55.4332C44.332 54.7282 44.1176 53.8865 44.5946 53.0248C45.662 51.095 47.6124 49.2564 50.4826 50.2376C50.7111 50.316 51.0873 50.222 51.2903 50.0682C52.8787 48.8618 54.663 48.7778 56.5211 49.0897C57.2351 49.2094 57.6765 49.5426 57.5275 50.3915C56.9938 53.3994 52.5707 57.2077 49.2491 57.2305Z" fill="black"/>
<path d="M45.6393 34.5158C45.6507 38.3626 43.0814 41.174 39.5227 41.2081C35.8165 41.2437 32.8341 38.2144 32.8355 34.4189C32.837 31.1176 35.9513 28.1538 39.4262 28.1467C42.8486 28.1381 45.6279 30.9894 45.6393 34.5158ZM39.2133 37.8598C40.9181 37.9239 42.3958 36.4399 42.4724 34.5855C42.5448 32.7996 41.2659 31.3569 39.5625 31.3027C37.5482 31.2386 36.0847 32.5703 36.0109 34.53C35.9442 36.3017 37.3765 37.79 39.2133 37.8598Z" fill="white"/>
<path d="M91.4192 53.7369C92.3092 53.0761 93.29 52.4922 94.0849 51.716C94.8571 50.9626 95.4406 50.014 96.2397 48.9801C96.2298 51.4938 94.0111 53.5447 91.4192 53.7369Z" fill="white"/>
<path d="M85.1181 80.1646C85.5751 80.4779 86.0521 80.7713 86.4609 81.1388C86.5006 81.1744 86.1273 81.6728 85.9456 81.9563C85.5226 81.5276 85.0996 81.0989 84.678 80.6688C84.8242 80.5021 84.9704 80.3327 85.1181 80.1646Z" fill="white"/>
<path d="M72.6677 94.4024C72.6677 93.8997 72.6677 93.3955 72.6677 92.8928C72.9176 92.9384 73.3831 92.9782 73.3846 93.0295C73.3959 93.4952 73.3264 93.9638 73.2795 94.4323C73.0751 94.421 72.8707 94.4124 72.6677 94.4024Z" fill="white"/>
<path d="M60.8335 34.6226C60.8094 36.41 59.2948 37.9325 57.5559 37.9168C55.949 37.9011 54.6289 36.4669 54.6616 34.7735C54.6985 32.9377 56.1194 31.3711 57.7064 31.4167C59.2863 31.4637 60.8548 33.0702 60.8335 34.6226Z" fill="black"/>
<path d="M39.2133 37.8598C37.3779 37.79 35.9442 36.3017 36.0109 34.5314C36.0833 32.5703 37.5468 31.2401 39.5625 31.3042C41.2659 31.3583 42.5462 32.801 42.4724 34.587C42.3958 36.4399 40.9181 37.9239 39.2133 37.8598Z" fill="black"/>
<path d="M100.88 15.0724C100.721 14.9186 100.566 14.752 100.382 14.6338C98.3122 13.3007 96.3079 11.8452 94.1488 10.6773C90.5987 8.75463 86.7874 7.41303 82.8199 6.71516C76.9518 5.68261 71.0723 5.86064 65.2268 7.094C63.9166 7.3703 62.5653 7.44863 61.062 7.63948C61.1444 7.15809 61.1202 6.97579 61.1997 6.88464C61.9222 6.05718 62.6902 5.26816 63.3872 4.41933C63.6895 4.05046 64.1168 3.51069 64.0373 3.14751C63.6796 1.50397 62.3822 0.622385 60.9428 0.0954267C59.7888 -0.327564 59.2423 0.783321 58.7057 1.51394C55.9718 5.23398 53.9717 9.29298 53.2066 13.9046C53.1853 14.0299 53.1328 14.1738 53.0604 14.3091C53.0703 15.1622 53.1186 16.0153 53.1413 16.8684C53.2137 16.9965 53.279 17.1333 53.3301 17.2728C53.3798 17.3255 53.4209 17.3925 53.4564 17.4665C53.5416 17.5847 53.5927 17.7272 53.5941 17.8796C53.597 18.2499 53.6055 18.6088 53.5728 18.9705C53.8908 19.1101 54.2556 19.1571 54.6374 19.1386C55.245 18.8936 55.871 18.6956 56.5069 18.5774C56.4558 17.683 56.5793 16.8029 56.866 15.9597C56.8746 15.8956 56.8845 15.8301 56.8973 15.766C56.9413 15.531 57.0222 15.3174 57.1301 15.1052C57.1528 15.0596 57.1797 15.0169 57.2053 14.9742C57.1726 14.8004 57.2209 14.5868 57.3401 14.3304C57.8043 13.3335 58.3082 12.3536 58.7667 11.3538C59.0634 10.7058 59.5801 10.4437 60.2004 10.6602C61.4723 11.1032 62.8151 11.4735 63.9393 12.1784C65.9933 13.4645 67.8912 14.9998 69.8898 16.3827C73.6004 18.9491 77.6544 20.7294 82.1471 21.2905C86.5674 21.8431 90.982 21.752 95.3171 20.5784C96.9835 20.127 98.6727 19.6912 100.254 19.0161C102.373 18.1074 102.539 16.6789 100.88 15.0724ZM57.8057 8.27895C56.69 10.1888 55.9931 12.3465 54.9398 14.4102C55.086 13.5656 55.2052 12.7139 55.3841 11.8765C56.0882 8.55809 57.9264 5.76949 59.6326 2.93246C60.48 1.52391 60.9059 1.57661 61.847 2.87691C60.4687 4.68566 58.9286 6.35911 57.8057 8.27895ZM98.2228 15.7019C87.4531 13.3847 76.7615 11.0832 65.7875 8.72045C75.0028 5.84924 95.5073 10.3042 98.2228 15.7019ZM65.5817 10.891C66.8436 11.0362 68.1339 11.0633 69.3632 11.3481C74.5642 12.5544 79.7411 13.8633 84.9406 15.0753C86.2891 15.39 87.6817 15.541 89.0628 15.6806C92.0253 15.9782 94.9906 16.2403 97.9587 16.4696C98.66 16.5237 99.4478 16.1677 99.858 17.0891C90.7662 21.2293 79.1406 21.9727 65.5817 10.891Z" fill="black"/>
<path d="M49.3598 83.7593C50.1292 83.7593 50.8999 83.7593 51.6693 83.7593C52.3847 83.7593 52.3861 82.6442 51.6693 82.6442C50.8999 82.6442 50.1292 82.6442 49.3598 82.6442C48.6444 82.6442 48.643 83.7593 49.3598 83.7593Z" fill="black"/>
<path d="M49.3598 84.1111C50.1064 84.1111 50.8531 84.1111 51.5997 84.1111C52.3152 84.1111 52.3166 82.9959 51.5997 82.9959C50.8531 82.9959 50.1064 82.9959 49.3598 82.9959C48.6444 82.9945 48.643 84.1111 49.3598 84.1111Z" fill="black"/>
<path d="M49.1497 84.3845C49.8992 84.4216 50.643 84.4002 51.3896 84.319C52.0937 84.2421 52.1008 83.1255 51.3896 83.2039C50.6444 83.285 49.8992 83.3064 49.1497 83.2694C48.4343 83.2338 48.4371 84.3489 49.1497 84.3845Z" fill="black"/>
<path d="M49.1497 84.5953C50.0951 84.6551 51.0291 84.5668 51.9503 84.3475C52.6459 84.1809 52.3521 83.1056 51.6551 83.2722C50.8275 83.4702 49.9986 83.5343 49.1497 83.4802C48.4357 83.4346 48.4385 84.5512 49.1497 84.5953Z" fill="black"/>
</g>
<defs>
<clipPath id="clip0_98_1651">
<rect width="102" height="105" fill="white"/>
</clipPath>
</defs>
</svg>
