<?xml version="1.0" encoding="utf-8"?>
<!-- Generator: Adobe Illustrator 23.0.1, SVG Export Plug-In . SVG Version: 6.00 Build 0)  -->
<svg version="1.1" id="Layer_1" xmlns="http://www.w3.org/2000/svg" xmlns:xlink="http://www.w3.org/1999/xlink" x="0px" y="0px"
	 viewBox="0 0 369.62 117.23" style="enable-background:new 0 0 369.62 117.23;" xml:space="preserve">
<style type="text/css">
	.st0{fill:#C5D3CE;}
	.st1{fill:#7B4227;}
	.st2{fill:#388735;}
	.st3{stroke:#FFFFFF;stroke-width:2.8346;stroke-miterlimit:10;}
	.st4{fill:#FFFFFF;}
	.st5{fill:#B1CD49;}
	.st6{stroke:#000000;stroke-width:5.6693;stroke-miterlimit:10;}
	.st7{fill:#010202;stroke:#000000;stroke-width:7.0866;stroke-miterlimit:10;}
	.st8{fill:#010202;stroke:#000000;stroke-width:2.8346;stroke-miterlimit:10;}
	.st9{stroke:#FFFFFF;stroke-miterlimit:10;}
	.st10{stroke:#FFFFFF;stroke-width:5.6693;stroke-miterlimit:10;}
	.st11{stroke:#000000;stroke-width:2.8346;stroke-miterlimit:10;}
	.st12{stroke:#000000;stroke-width:25.5118;stroke-miterlimit:10;}
	.st13{stroke:#010202;stroke-width:17.0079;stroke-linecap:round;stroke-linejoin:round;stroke-miterlimit:10;}
	.st14{fill:#010202;stroke:#FFFFFF;stroke-width:2.8346;stroke-miterlimit:10;}
	.st15{stroke:#000000;stroke-width:4.252;stroke-miterlimit:10;}
	.st16{stroke:#000000;stroke-width:8.5039;stroke-miterlimit:10;}
	.st17{stroke:#000000;stroke-width:11.3386;stroke-miterlimit:10;}
	.st18{stroke:#000000;stroke-width:7.0866;stroke-miterlimit:10;}
	.st19{stroke:#000000;stroke-width:9.9213;stroke-linejoin:round;stroke-miterlimit:10;}
	.st20{stroke:#000000;stroke-width:11.3386;stroke-linejoin:round;stroke-miterlimit:10;}
	.st21{fill:#010202;}
	.st22{fill:#C2CB2A;}
	.st23{fill:#203B8F;}
	.st24{fill:#C22918;}
	.st25{fill:#F0C142;}
	.st26{fill:#000F08;}
	.st27{fill:#A62F29;}
	.st28{fill:#A5C738;}
	.st29{fill:#212120;}
	.st30{fill:#F2CF00;}
	.st31{fill:#C3671F;}
	.st32{fill:#E22717;}
	.st33{fill:#09090B;}
	.st34{fill:#89A393;}
	.st35{fill:#191E25;}
	.st36{fill:#DA4330;}
	.st37{fill:#8CB734;}
	.st38{fill:#F5F3E2;}
	.st39{fill:#1F2023;}
	.st40{fill:#709291;}
	.st41{fill:#EFF1E5;}
	.st42{fill:#D65125;}
	.st43{fill:#EFC236;}
	.st44{fill:#7EB332;}
	.st45{fill:#C52D30;}
	.st46{fill:#FEEC39;}
	.st47{fill:#EB7DB0;}
	.st48{fill:#69B42D;}
	.st49{fill:#C6CD78;}
	.st50{stroke:#010202;stroke-width:5.6693;stroke-miterlimit:10;}
	.st51{stroke:#000000;stroke-width:1.4173;stroke-miterlimit:10;}
	.st52{fill:#FDFDFD;}
	.st53{fill:#FFFFFF;stroke:#FFFFFF;stroke-width:5.6693;stroke-miterlimit:10;}
	.st54{fill:#616160;}
	.st55{stroke:#000000;stroke-miterlimit:10;}
	.st56{fill:none;stroke:#000000;stroke-miterlimit:10;}
	.st57{fill:none;stroke:#616160;stroke-miterlimit:10;}
	.st58{fill:none;stroke:#616160;stroke-width:11.3386;stroke-linecap:round;stroke-miterlimit:10;}
	.st59{stroke:#000000;stroke-width:0.7512;stroke-miterlimit:10;}
	.st60{fill:none;stroke:#616160;stroke-width:5.6693;stroke-linecap:round;stroke-miterlimit:10;}
	.st61{stroke:#FFFFFF;stroke-width:11.3386;stroke-miterlimit:10;}
	.st62{fill:none;}
	.st63{opacity:0.1091;fill:#FFFFFF;}
	.st64{opacity:0.85;}
	.st65{opacity:0.3;fill:#FFFFFF;}
	.st66{opacity:0.4;fill:#FFFFFF;}
	.st67{clip-path:url(#SVGID_2_);}
	.st68{fill:#020203;}
	.st69{clip-path:url(#SVGID_4_);}
	.st70{fill:#BB1818;}
	.st71{clip-path:url(#SVGID_6_);}
	.st72{clip-path:url(#SVGID_8_);}
	.st73{fill:#6BA35A;}
	.st74{fill:#B79C6C;}
	.st75{fill:#A52116;}
	.st76{fill:#EAD038;}
	.st77{fill:#81AA7D;}
	.st78{fill:#83ADCC;}
	.st79{fill:#1F3A32;}
</style>
<g>
	<g>
		<path d="M363.64,9.48C359.11,3.16,353.22,0,345.97,0c-5.68,0-11.04,2.12-16.08,6.36c-1.89,1.6-3.63,3.41-5.22,5.38
			c0.14,0.26,0.29,0.51,0.42,0.78c3.05,6.02,4.6,13.38,4.6,21.87v1.4c0,7.09-1.27,13.32-3.76,18.54c-0.58,1.21-1.21,2.32-1.89,3.33
			c4.52,3.85,9.73,5.78,15.63,5.78c8.77,0,16.06-3.65,21.86-10.93c5.38-6.78,8.07-14.66,8.07-23.64
			C369.62,21.49,367.62,15.03,363.64,9.48z M333.77,41.45c-0.21-0.68-0.32-1.21-0.32-1.59c0-1.36,0.6-2.7,1.81-4.04 M335.26,35.82
			c7.01-4.51,10.07,2.72,10.07,3.91c0,1.48-0.53,2.65-1.59,3.5c-1.06,0.85-8.22,2.54-9.98-1.78"/>
	</g>
	<g>
		<path d="M321.83,13.16C318.1,5.79,312.48,2.1,304.98,2.1c-6.48,0-10.21,4.11-11.19,12.33c-1.57-2.33-4.03-4.24-7.37-5.72
			c-3.14-1.44-6.21-2.16-9.22-2.16c-3.94,0-7.69,2.69-11.25,8.08c-0.39,0.59-0.75,1.17-1.09,1.75c0.81,0.45,1.59,0.94,2.32,1.49
			c3.07,2.3,4.63,5.1,4.63,8.31c0,7.22-2.51,12.39-7.48,15.4c0.55,0.26,1.17,0.54,1.87,0.85c1.84,0.81,3.4,1.71,4.65,2.66l0.62,0.25
			l0.24,0.47c1.43,2.73,1.62,3.64,1.62,4.22c0,2.58-1.14,5.05-3.39,7.35c-1.53,1.57-3.38,2.92-5.51,4.02v0.21l-0.74,0.29
			c2.64,2.42,6.41,3.64,11.34,3.64c2.63,0,5.15-0.83,7.56-2.5c1.06-0.73,3.07-2.52,6.04-5.38c6.36,4.03,13.09,6.04,20.21,6.04
			c6.02,0,10.61-3.33,13.79-9.98c2.42-5.04,3.62-11.02,3.62-17.92v-1.4C326.28,26.09,324.79,19.01,321.83,13.16z"/>
		<path class="st4" d="M258.83,41.79c0.03-0.28,0.07-0.56,0.12-0.86l-0.92,0.37L258.83,41.79z"/>
	</g>
	<g>
		<path d="M269.46,46.47l-0.32-0.13c-1.19-0.93-2.69-1.8-4.51-2.61c-2.2-0.97-3.69-1.69-4.45-2.16c6.14-2.46,9.22-7.58,9.22-15.38
			c0-2.75-1.36-5.15-4.07-7.18c-2.25-1.69-4.87-2.84-7.88-3.43c2.67-1.65,4.45-2.92,5.34-3.81c1.78-1.74,2.67-3.66,2.67-5.78
			c0-2.58-1.42-4.32-4.26-5.21C259.55,0.26,257.07,0,253.77,0c-8.68,0-15.55,2.27-20.62,6.8c1.24,1.69,2.37,3.62,3.38,5.83
			c3.25,7.02,4.9,14.9,4.9,23.41c0,7.85-1.24,13.57-3.79,17.49c-1.81,2.76-4.32,4.76-7.5,5.99c2.88,2.61,6.62,3.91,11.23,3.91
			c1.02,0,2.08,0,3.18,0h0.13h4.7c3.73,0,7.94-0.93,12.65-2.8v-0.13c2.33-1.1,4.3-2.48,5.91-4.13c1.99-2.03,2.99-4.15,2.99-6.36
			C270.93,49.52,270.44,48.33,269.46,46.47z"/>
	</g>
	<g>
		<path d="M233.24,13.22c-4.03-8.73-9.72-13.09-17.1-13.09c-6.02,0-11.95,3.31-17.8,9.92h-0.19c-1.06-2.78-3.48-5.18-7.25-7.2
			C187.44,0.95,184.09,0,180.87,0c-4.53,0-8.94,2.94-13.22,8.83c-1.61,2.22-3.1,4.74-4.49,7.53c1.23,1.95,2.37,4.03,3.38,6.24
			c3.08,6.76,4.64,13.58,4.64,20.27c0,5.15-1.27,9.84-3.77,13.94c-1.26,2.09-2.75,3.76-4.43,5.05c1.89,1.05,4.08,1.58,6.58,1.58
			c2.42,0,4.68-0.72,6.8-2.16c0.38-0.25,2.22-1.8,5.53-4.64c1.36,1.84,3.33,3.43,5.91,4.78c2.58,1.35,5,2.02,7.25,2.02
			c2.92,0,5.42-0.96,7.5-2.88c2.54-2.52,4.43-4.42,5.66-5.7c4.66,3.14,8.39,4.7,11.19,4.7c7.08,0,12.1-2.27,15.06-6.8
			c2.37-3.64,3.56-9.22,3.56-16.72C238.01,27.7,236.42,20.09,233.24,13.22z"/>
	</g>
	<g>
		<path d="M164.24,23.18c-3.01-6.6-7.01-11.98-12.01-16.13C146.59,2.35,140.45,0,133.8,0c-0.98,0-2.43,0.25-4.35,0.76
			c-1.93,0.51-3.25,0.76-3.97,0.76c-0.55,0-1.61,0.59-3.18,1.78c-1.31,0.97-2.31,1.8-2.99,2.48c-1.44,1.47-2.8,3-4.07,4.59
			c1.76,3.75,2.66,8.24,2.66,13.42c0,1.7-0.27,4.1-0.81,7.34c-0.51,3.03-0.77,5.34-0.77,6.87c0,0.44,0,1.27-2.73,8.14v0.44
			l-0.15,0.3c-2.53,5.16-4.5,8.72-6,10.86c2.02,1.52,4.43,2.55,7.24,3.1c1.99,0.3,3.5,0.49,4.51,0.57c3.86-0.38,7.63-3.2,11.31-8.45
			c0.25,0.04,1.55-0.42,3.88-1.4c0.72,3.98,3.22,7.03,7.5,9.15c3.52,1.74,7.5,2.61,11.95,2.61l0.32,0.13
			c4.66-0.42,8.35-2.88,11.06-7.37c2.37-3.89,3.56-8.3,3.56-13.21C168.76,36.35,167.25,29.79,164.24,23.18z M139.01,37.95
			c-0.68,0.93-1.21,1.57-1.59,1.91l-0.32,0.06c-0.25,0.42-0.68,0.64-1.27,0.64c-1.95,0-3.84-0.51-5.66-1.53
			c-0.59-0.76-1.04-1.14-1.33-1.14c-0.21-0.34-0.36-0.61-0.44-0.83c-0.42-0.8-0.64-1.57-0.64-2.29c0-0.76,0.52-1.85,1.56-3.27
			c1.04-1.42,1.92-2.21,2.64-2.38c0.93-0.21,1.63-0.32,2.1-0.32c1.65,0,3.03,0.48,4.13,1.43c1.1,0.95,1.65,2.26,1.65,3.91
			c0,0.21,0.03,0.53,0.1,0.95c0.06,0.42,0.1,0.74,0.1,0.95C140.03,36.38,139.69,37.02,139.01,37.95z"/>
	</g>
	<path d="M50.15,36.96c0,7.15-2.79,13.36-8.36,18.6c-5.57,5.25-11.96,7.87-19.16,7.87c-5.72,0-10.61-0.95-14.68-2.86
		C2.65,58.08,0,54.38,0,49.47c0-3.43,2.67-6.84,8.01-10.22c-1.19-1.18-2.27-2.31-3.24-3.36c-1.82-1.99-2.61-3.2-2.35-3.62
		c-1.27-2.54-1.91-5.44-1.91-8.7c0-7.62,3.14-13.59,9.41-17.91C15.42,1.89,22.16,0,30.13,0c3.52,0,7.03,0.85,10.55,2.54
		c4.28,2.07,6.42,4.64,6.42,7.68c0,2.67-0.57,4.72-1.72,6.16c-0.81,1.02-2.48,2.24-5.02,3.68c2.92,2.03,5.25,4.47,6.99,7.3
		C49.22,30.42,50.15,33.62,50.15,36.96z"/>
	<path d="M109.71,7.24c-3.48-4.57-8.56-6.98-15.25-7.23c-2.92-0.08-5.42,0.99-7.5,3.23c-1.57,1.69-2.99,4.19-4.26,7.51
		c-1.27,3.32-2.22,5.8-2.86,7.44c-2.16,0.63-3.75,1.18-4.77,1.65c0.04-0.51,0.06-1.04,0.06-1.59c0-3.43-1.28-6.49-3.85-9.18
		c-2.56-2.69-5.56-4.04-8.99-4.04c-4.81,0-8.77,1.31-11.89,3.93c0.07,0.42,0.11,0.84,0.11,1.27c0,2.98-0.68,5.35-2.02,7.04
		c-0.7,0.88-1.88,1.85-3.59,2.94c2.29,1.86,4.19,4.02,5.66,6.42c1.99,3.26,3.01,6.74,3.01,10.33c0,6.9-2.5,13.02-7.41,18.23
		c2.99,3.67,7.83,5.51,14.55,5.51c3.18,0,6.2-1.24,9.06-3.72c2.86-2.48,4.25-5.29,4.16-8.42l0.25-0.25l3.43-0.25
		c-0.13,4.47,0.97,8.1,3.31,10.89c2.46,3,5.89,4.49,10.3,4.49c5.04,0,9.11-1.8,12.2-5.39c1.48-1.73,3.73-5.67,6.74-11.8v-0.38
		c1.82-4.57,2.73-7.19,2.73-7.87c0-1.61,0.26-3.97,0.79-7.1c0.53-3.13,0.79-5.5,0.79-7.1C114.48,16.9,112.89,11.38,109.71,7.24z"/>
	<g>
		<path d="M88.84,97.57l1.98,3.33l0.68-0.67h0.65c2.03,2.84,5,4.26,8.91,4.26l0.65,0.67v2.65c0,0.74-3.19,1.31-9.57,1.7l-7.96,7.96
			H80.2c-2.2-1.13-3.3-2.9-3.3-5.31C80.01,102.43,83.99,97.57,88.84,97.57z M84.18,105.53l-1.86,4.26l1.75,0.21l1.82-3.19l-0.3-1.75
			L84.18,105.53z"/>
		<path d="M118.28,70.62c0.99,0,1.49,0.75,1.49,2.26c-9.53,16.73-14.29,29.26-14.29,37.59v1.51l13.57-6.61l0.74,0.74v2.26
			c-5.09,4.97-10.11,7.92-15.06,8.87h-0.74c-3.01,0-4.52-1-4.52-3c0-11.09,5.26-25.38,15.78-42.87l0.77-0.74H118.28z"/>
		<path d="M122.91,96.33h1.54l1.56,1.56l-1.56,9.29c0.71,3.09,2,4.63,3.86,4.63l4.65-1.54l1.54,2.3c-2.06,3.1-4.38,4.65-6.96,4.65
			c-6.19-2.16-9.29-5.51-9.29-10.05v-2.33C118.25,102.1,119.8,99.27,122.91,96.33z M137.59,80.86h2.33l1.56,1.54v0.79
			c-1.75,8.77-3.56,13.15-5.42,13.15l-0.77-0.77v-6.19C135.29,83.69,136.06,80.86,137.59,80.86z"/>
		<path d="M142.69,99.73h0.72c1.44,0,2.16,0.97,2.16,2.91l-1.44,6.49h0.72l10.12-7.96h2.89l2.89,4.35h0.72l2.19-0.72l2.16,2.89
			c-0.48,1.92-3.13,2.89-7.96,2.89c0-1.1-1.2-1.82-3.61-2.16c-7.14,6.27-12.44,9.4-15.92,9.4l-2.16-2.16v-1.44
			C138.07,104.56,140.24,99.73,142.69,99.73z"/>
		<path d="M174.13,92.49c2.81,1.15,4.34,2.24,4.58,3.28c0,3.86-3.28,8.68-9.84,14.45v0.65c1.64,0,6.49-1.37,14.52-4.12l0.67,0.65
			v0.65c-5.01,4.95-10.51,7.42-16.5,7.42h-1.33l-3.28-3.28v-3.96C165.88,97.74,169.6,92.49,174.13,92.49z M169.52,101.69v1.33h0.68
			l2.61-3.28V98.4L169.52,101.69z"/>
		<path d="M230.36,97.57l1.98,3.33l0.68-0.67h0.65c2.03,2.84,5,4.26,8.91,4.26l0.65,0.67v2.65c0,0.74-3.19,1.31-9.57,1.7l-7.96,7.96
			h-3.98c-2.2-1.13-3.3-2.9-3.3-5.31C221.54,102.43,225.52,97.57,230.36,97.57z M225.71,105.53l-1.86,4.26l1.75,0.21l1.82-3.19
			l-0.3-1.75L225.71,105.53z"/>
		<path d="M246.19,96.33h1.54l1.56,1.56l-1.56,9.29c0.71,3.09,2,4.63,3.86,4.63l4.65-1.54l1.54,2.3c-2.06,3.1-4.38,4.65-6.96,4.65
			c-6.19-2.16-9.29-5.51-9.29-10.05v-2.33C241.53,102.1,243.08,99.27,246.19,96.33z M260.87,80.86h2.33l1.56,1.54v0.79
			c-1.75,8.77-3.56,13.15-5.42,13.15l-0.77-0.77v-6.19C258.57,83.69,259.34,80.86,260.87,80.86z"/>
		<path d="M280.49,70.62c0.99,0,1.49,0.75,1.49,2.26c-9.53,16.73-14.29,29.26-14.29,37.59v1.51l13.57-6.61l0.74,0.74v2.26
			c-5.09,4.97-10.11,7.92-15.06,8.87h-0.74c-3.01,0-4.52-1-4.52-3c0-11.09,5.26-25.38,15.78-42.87l0.77-0.74H280.49z"/>
	</g>
</g>
</svg>
