<?xml version="1.0" encoding="UTF-8"?>
<svg id="Layer_3" xmlns="http://www.w3.org/2000/svg" viewBox="0 0 106.5 133">
  <path d="M54.43,133c.01-.1-21.7-1.99-21.69-2.1-1.39-.54-2.79-1.06-4.18-1.62-3.56-1.44-6.93-3.19-9.71-5.91-3.17-3.11-4.59-6.96-5.23-11.29-1.75-11.93-3.68-23.84-5.52-35.76-.45-2.94-.84-5.89-1.31-8.82-.07-.46-.41-.93-.74-1.29-2.67-2.9-4.82-6.07-5.52-10.06-1.1-6.28,1.51-14.03,7.62-17.77.9-.55,1.88-.99,2.76-1.56.23-.15.38-.62.36-.93-.17-2.13.09-4.19.74-6.22,1.02-3.2,3.01-5.7,5.65-7.7,1.49-1.13,2.99-2.29,4.9-2.67.13-.03.26-.1.38-.08,1.52.21,2.25-.59,3.01-1.85,2.58-4.25,6.42-6.42,11.46-6.33.25,0,.57-.12.74-.3,1.64-1.76,3.71-2.49,6.06-2.65.34-.02.87-.36.94-.65.24-1.01.57-2.1.41-3.09-.43-2.84.69-4.17,3.58-3.87,2.53.26,4.74,1.32,6.56,3.06,1.06,1.01,1.87,2.29,2.83,3.42.23.27.61.56.94.58,2.61.16,4.92,1.04,6.84,2.83.55.51,1.12.78,1.88.81,5.33.19,9.43,2.63,12.44,6.96.46.66.98.77,1.72.92,1.36.27,2.76.69,3.97,1.36,4.43,2.42,7.31,6.12,8.35,11.09.26,1.26.03,2.63.02,3.96,0,.32-.05.63-.08.96,5.12,1.47,7.88,5.37,9.95,9.77,2.34,4.99,1.92,10.07-.4,15.01-1.09,2.31-2.58,4.32-4.7,5.83-.17.12-.28.41-.32.64-.96,6.3-1.9,12.6-2.85,18.89-1.38,9.08-2.76,18.16-4.18,27.23-.77,4.9-3.08,8.84-7.23,11.7-2.8,1.93-5.93,3.14-9.04,4.42-.62.26-1.25.51-1.86.94.52.03-20.06,2.15-19.54,2.15M93.58,40.64c-1.67,4.35-4.55,7.66-8.22,10.3-6.9,4.97-14.8,6.69-23.13,6.94-.71.02-1.49-.22-2.12-.56-.83-.45-1.6-.5-2.5-.35-2.8.48-5.6,1.05-8.42,1.3-9.32.83-18.08-.96-26.11-5.91-4.49-2.77-8.02-6.39-10.05-11.35-.09-.23-.23-.43-.4-.74-1,.91-1.96,1.72-2.85,2.61-2.29,2.29-4.04,4.88-4.31,8.23-.46,5.75,1.82,10.22,6.35,13.67,4.02,3.06,8.52,5.14,13.29,6.65,10.24,3.23,20.75,4.55,31.48,4.11,9.37-.38,18.48-2.13,27.29-5.32,4.22-1.53,8.23-3.48,11.62-6.48,2.2-1.94,4.22-4.06,4.94-7.04,1.44-5.95-.84-12.2-6.87-16.08ZM24.15,23.78c-.33.09-.7.12-.98.29-1.25.8-2.54,1.56-3.69,2.48-2.03,1.63-3.02,3.86-3.14,6.42-.22,4.48,1.68,8.15,4.57,11.39,3.77,4.22,8.57,6.67,13.95,8.14,5.67,1.55,11.41,1.89,17.21.93,6.39-1.06,12.23-3.48,17.45-7.33,5.66-4.18,9.1-9.65,9.48-16.8.19-3.72-.75-7.13-3.36-9.92-1.59-1.69-3.58-2.73-5.93-3.51,1.2,3.51.5,6.69-.85,9.78-1.79,4.1-4.73,7.11-8.72,9.14-6.39,3.26-13.14,4.74-20.19,3.18-7.75-1.71-13.58-5.87-15.79-14.2ZM40.09,79.89c0,.28-.01.63,0,.98.18,5.04.35,10.08.57,15.13.28,6.49.57,12.99.91,19.48.2,3.84.54,7.67.76,11.51.09,1.59.02,1.65,1.6,1.83,2.33.26,4.68.44,7.02.65v-48.94c-3.71-.22-7.25-.43-10.86-.64ZM55.73,80.53v48.92c2.56-.51,5.09-1.01,7.62-1.5.55-.11.72-.38.68-.95-.07-1-.12-2.01-.05-3,.21-3.13.55-6.25.72-9.38.52-9.4,1.01-18.79,1.46-28.19.11-2.28.02-4.56.02-6.74-3.29.26-6.76.54-10.45.84ZM36.33,15.07c-.9.35-1.81.65-2.68,1.04-3.5,1.57-5.16,4.95-4.06,8.42.63,1.98,1.87,3.59,3.39,5,3.43,3.17,7.65,4.21,12.12,4.38,5.77.23,10.97-1.54,15.5-5.11,3.19-2.52,5.01-5.77,4.73-9.99-.22-3.28-1.91-5.56-5.47-7.17-.04.37-.08.72-.12,1.06-.38,3.72-2.37,6.34-5.56,8.1-3.3,1.82-6.85,2.06-10.45,1.22-2.71-.64-5.08-1.96-6.48-4.52-.39-.72-.59-1.54-.92-2.43ZM26.03,76.89c.1,1.39.16,2.81.3,4.22.75,7.33,1.47,14.67,2.29,22,.78,7,1.66,13.99,2.53,20.98.04.32.34.75.63.86,1.76.65,3.54,1.22,5.32,1.8.15.05.35-.02.52-.04-.07-1.3-.11-2.52-.21-3.75-.34-4.61-.81-9.22-1.04-13.84-.47-9.27-.81-18.55-1.2-27.83-.11-2.52-.12-2.49-2.6-2.98-2.17-.43-4.33-.94-6.54-1.43ZM68.59,126.81c1.38-.44,2.81-.93,4.27-1.33,1.48-.41,2.15-1.12,2.31-2.85.64-6.95,1.56-13.87,2.34-20.81.78-6.87,1.52-13.75,2.28-20.62.18-1.61.33-3.23.49-4.81-2.97.78-5.83,1.54-8.7,2.29-.99,16-1.99,32.03-2.99,48.13ZM12.75,71.56c.17,1.04.34,2.09.5,3.14,1.75,11.96,3.51,23.92,5.26,35.89.5,3.46,1.53,6.71,4,9.29,1.07,1.12,2.36,2.03,3.7,3.18-.4-3.67-.77-7.01-1.14-10.34-.96-8.61-1.92-17.22-2.89-25.83-.42-3.73-.84-7.45-1.31-11.17-.04-.34-.31-.82-.6-.95-2.44-1.08-4.91-2.1-7.52-3.2ZM79.95,122.53c4.05-2.65,6.62-6.07,7.3-11.01,1.65-11.97,3.55-23.91,5.35-35.86.22-1.48.45-2.97.7-4.61-.38.21-.6.34-.83.45-1.99.92-3.97,1.88-5.99,2.71-.6.25-.85.5-.93,1.13-.51,4.23-1.09,8.46-1.59,12.7-.77,6.48-1.51,12.97-2.26,19.46-.58,4.97-1.16,9.94-1.75,15.04ZM83.37,24.14c.03.31.04.56.08.81,1.17,6.51-.54,12.37-4.08,17.78-2.43,3.7-5.89,6.31-9.57,8.65-.97.61-1.94,1.23-2.98,1.89.17.04.26.09.34.08.19-.01.4,0,.57-.07,3.86-1.35,7.9-2.16,11.61-4.03,4.19-2.11,7.31-5.16,9.27-9.4,1.21-2.62,1.63-5.37,1.1-8.23-.68-3.66-3.32-5.67-6.34-7.47ZM50.51,5.77c-.1.78-.12,1.49-.3,2.16-.89,3.24-3.88,5.37-7.53,5.43-1,.02-1.18.23-1.01,1.21.21,1.24,1.04,1.96,2.11,2.46,2.98,1.39,5.85,1.05,8.6-.6,1.09-.65,1.99-1.52,2.27-2.88.66-3.17-.83-6.07-4.13-7.78Z"/>
  <path d="M38.96,41.84c.36.08.91.14,1.41.34,1.03.41,1.53,1.22,1.48,2.16-.05.89-.75,1.71-1.71,2.03-1.4.46-2.93-.07-3.75-1.31-.97-1.45-.24-2.97,1.51-3.15.29-.03.58-.04,1.06-.07Z"/>
  <path d="M75.42,29.92c0,1.74-1.05,3.02-2.46,3.03-1.2,0-2.1-1.18-2.09-2.77.01-1.39,1.1-2.59,2.35-2.58,1.21,0,2.21,1.06,2.2,2.32Z"/>
  <path d="M30.38,39.95c0,1.39-.88,2.33-2.16,2.34-1.21.01-2.54-1.29-2.53-2.48,0-.97,1.34-1.8,2.84-1.77,1.1.02,1.86.8,1.85,1.91Z"/>
  <path d="M21.87,36.48c-1,0-2.26-1.13-2.27-2.03-.02-.97,1.15-2.17,2.12-2.17,1.17,0,2.12.98,2.14,2.19.02,1.21-.78,2.02-1.99,2.01Z"/>
  <path d="M43.17,29.42c-1.18,0-1.99-.68-2.02-1.74-.03-1.02,1.24-2.08,2.5-2.09.99,0,1.85.83,1.87,1.82.02,1.19-.93,2-2.35,2.01Z"/>
  <path d="M63.28,20.33c.03,1.14-.86,2.22-1.85,2.26-1,.04-2.05-.91-2.1-1.91-.05-1.02.97-2.26,1.86-2.25,1.08,0,2.06.9,2.09,1.9Z"/>
  <path d="M36.6,24.02c0,.58-.15,1.07-.85,1-.69-.07-1.4-.44-1.28-1.15.09-.55.64-1.16,1.15-1.44.44-.24.97.66.98,1.6Z"/>
</svg>