<?xml version="1.0" encoding="UTF-8"?>
<svg id="Layer_1" xmlns="http://www.w3.org/2000/svg" viewBox="0 0 403 165.5">
  <path d="M326.77,100.75c-1.68-.85-4.71-.79-6.46.54-8.08,6.18-16.08,12.43-24.18,18.59-3.04,2.31-6.34,4.37-9.4,6.66-3.54,2.64-7.12,5.28-10.37,8.16-3.59,3.19-7.87,3.94-12.6,3-3.02-.6-5.87-1.79-8.81-2.69-4.12-1.27-8.26-2.52-12.38-3.8-2.74-.86-5.38-2.15-8.21-2.53-2.34-.31-4.88.4-7.3.79-.24.04-.45,1-.38,1.51.29,2.06-.2,3.84-1.79,5.5-5.39,5.62-10.73,11.28-16,16.98-1.95,2.11-3.49,4.52-5.58,6.51-1.56,1.49-3.62,2.65-5.65,3.7-.83.43-2.19.34-3.26.21-4.78-.56-8.07-3.43-11.86-5.54-7.42-4.14-15.02-8.08-22.33-12.35-4.14-2.42-7.9-5.29-11.75-8.05-1.57-1.12-3.23-1.72-5.28-1.79-11.97-.41-23.84-1.67-35.55-3.68-8.39-1.44-16.7-3.35-24.86-5.54-8.86-2.38-17.72-4.92-26.19-8.14-12.66-4.81-25.47-9.39-37.08-16.05-6.32-3.63-11.87-7.7-16.22-12.96-1.06-1.29-1.97-2.73-2.58-4.21-.96-2.3-.37-4.42,1.98-6,1.22-.82,1.63-1.51.32-2.59-2.81-2.31-2.59-4.99-.98-7.72,2.62-4.46,7.21-7.41,11.9-9.99,7.7-4.22,15.58-8.27,23.76-11.75,12.59-5.37,25.71-9.73,39.24-13.16,19.82-5.02,39.94-8.79,60.61-10.17,4.23-.28,7.96-1.25,11.61-3.15,9.81-5.11,19.77-10.03,29.75-14.91,3.18-1.56,6.57-2.84,9.92-4.15,4.23-1.66,8.17-1.13,11.88,1.24,4.81,3.06,9.61,6.16,14.58,9.02,6.78,3.91,13.74,7.6,20.59,11.42,3.11,1.73,6.64,3.03,8.22,6.29.31.64,1.81.98,2.85,1.24,12.47,3.16,25.08,6,37.42,9.5,11.49,3.26,22.69,7.24,34.04,10.86,5.82,1.86,11.53,2.01,17.64.32,15.28-4.22,29.91-9.78,44.76-14.91,3.42-1.18,6.81-2.41,10.29-3.46,7.74-2.33,13.34,1.5,12.03,8.3-1.65,8.57-5.68,16.44-10.37,24.1-1.86,3.04-3.62,6.12-5.31,9.23-.21.39.12,1.08.38,1.55,3.49,6.41,7.24,12.73,10.45,19.24,1.93,3.91,3.45,8.04,4.43,12.19,1.6,6.78-2.13,12.09-12.05,9.98-6.96-1.48-13.71-3.72-20.45-5.84-6.15-1.94-12.12-4.25-18.24-6.26-5.92-1.95-11.89-3.82-17.9-5.56-1.53-.44-3.32-.34-4.98-.34-.67,0-1.34.38-2.29.68ZM57.75,112.29c4.33,1.42,8.68,2.9,13.08,4.27,11.86,3.71,23.87,7.11,36.33,8.98,10.65,1.6,21.43,2.65,32.2,3.62,12.3,1.11,24.62.6,36.97.15,11.86-.43,23.56-1.66,35.19-3.41,17.16-2.58,33.81-6.83,50.18-11.83,8.62-2.63,17.14-5.53,25.63-8.46,7.72-2.66,15.33-5.55,23.02-8.28,5.1-1.81,10.07-3.98,15.86-3.95,1.19,0,2.61-.67,3.53-1.39,3.25-2.53,5.73-5.52,6.96-9.19,2.69-7.95,1.72-15.27-5.21-21.51-.89-.8-2.36-1.31-3.67-1.6-3.78-.83-7.75-1.15-11.39-2.24-12.71-3.82-25.25-8.03-37.96-11.82-16.36-4.88-33.02-8.87-50.13-11.47-15.51-2.36-31.06-4.37-46.84-4.97-19.42-.74-38.74.04-57.97,2.41-15.46,1.9-30.61,5.03-45.6,8.7-4.46,1.09-8.85,2.4-13.7,3.72,16.31,8.29,25.2,20.05,23.49,35.9-1.7,15.76-12.92,26.05-29.98,32.37ZM81.41,79.17c-.42-2.9-.56-5.85-1.31-8.68-2.89-10.95-11.43-17.91-23-22.6-.81-.33-2.12-.27-2.97.06-7.68,2.95-15.46,5.74-22.89,9.08-5.96,2.69-11.59,5.94-17.12,9.23-2.2,1.31-3.99,3.27-5.54,5.18-1.76,2.16-1.41,2.65,1.46,3.55,4.57,1.42,8.84,3.32,12.36,6.19,4.27,3.47,7.32,7.63,8.47,12.58.23,1.01-.55,2.43-1.41,3.26-.4.39-2.45.13-3.14-.4-1.32-1.02-2.65-2.33-3.19-3.74-1.55-4.05-4.61-6.98-8.74-9.16-1.48-.78-3.28-1.31-5.01-1.55-2.05-.28-2.78.65-1.64,2.13,1.54,2.01,3.16,4.13,5.29,5.64,8.42,5.98,17.73,10.88,27.53,15.08,2.43,1.04,5.32,2.24,7.83,2.02,9.1-.81,17.4-3.68,23.91-9.29,5.91-5.09,8.42-11.5,9.11-18.58ZM345.46,73.03c-.13,1.61-.23,3.58-.48,5.53-.17,1.28.47,1.67,1.88,1.75,1.49.09,3.04.2,4.44.6,7.9,2.27,15.76,4.67,23.65,6.96,3.94,1.15,7.94,2.17,12.37,3.37-1.18-3.03-2.58-4.92-6-5.7-9.37-2.13-18.66-4.54-27.98-6.82-1.75-.43-3.39-1.21-2.88-2.81.25-.78,2.05-1.43,3.28-1.7,2.75-.61,5.63-.79,8.37-1.44,6.01-1.42,11.93-3.09,17.95-4.49,1.68-.39,3.33-.38,4.08-2.07.6-1.35,1.49-2.62,2.5-4.35-1.85.56-3.03.93-4.22,1.28-10.71,3.2-21.4,6.43-32.14,9.55-1.37.4-2.96.23-4.8.34ZM341.29,62.29c5.99-2.05,11.88-4.14,17.83-6.08,11.51-3.73,23.06-7.36,34.58-11.07.49-.16,1.12-.54,1.23-.92.43-1.5.68-3.05,1.07-4.91-2.33.56-4.2.85-5.92,1.44-5.51,1.88-10.91,3.98-16.45,5.79-10.03,3.28-20.13,6.41-30.2,9.6-2.13.68-4.26,1.37-6.93,2.23,1.16.83,1.94,1.33,2.63,1.9.75.62,1.42,1.31,2.16,2.01ZM340.45,90.44c-.69.74-1.12,1.26-1.61,1.74-1.72,1.66-1.62,1.92.8,2.64,4.45,1.34,8.91,2.66,13.31,4.11,11.42,3.77,22.81,7.62,34.23,11.38,2.7.89,5.5,1.57,8.28,2.36.81-3.07.15-4.52-2.05-5.23-16.02-5.18-32.03-10.38-48.05-15.57-1.61-.52-3.25-.95-4.91-1.44ZM345.05,70.44c1.18-.78,2.18-1.82,3.46-2.22,8.47-2.62,16.99-5.12,25.51-7.63,5.1-1.5,10.23-2.92,15.33-4.43.57-.17,1.18-.61,1.44-1.07.79-1.34,1.42-2.75,2.29-4.51-1.44.32-2.47.46-3.42.76-13.92,4.45-27.84,8.9-41.75,13.39-5.11,1.65-5.09,1.69-2.87,5.69ZM342.34,86.4c17.37,4.61,33.68,11.16,51.5,15.88-.96-1.85-1.56-3.14-2.32-4.37-.23-.38-.87-.67-1.39-.82-3.65-1-7.33-1.9-10.97-2.94-11.11-3.17-22.23-6.33-33.29-9.62-2.2-.65-2.8.23-3.53,1.86ZM198.83,153.83c-.75-.4-1.43-.78-2.14-1.13-8.55-4.13-17.14-8.23-25.65-12.43-1.44-.71-2.56-1.89-3.87-2.82-.66-.47-1.37-1.22-2.07-1.24-2.13-.05-4.26.2-6.59.34.27.35.34.55.49.63,11.25,6.12,22.49,12.27,33.78,18.33,3.48,1.87,3.57,1.76,5.81-1.1.08-.1.09-.24.23-.6ZM174.76,135.76c-.12.23-.23.46-.35.69,9.42,4.63,18.84,9.26,28.31,13.91.99-1.18,1.76-2.09,2.76-3.28-2.66-1.15-5.21-2.19-7.68-3.34-5.11-2.36-10.24-4.68-15.22-7.23-1.27-.65-2.38-1.12-3.82-1.03-1.34.08-2.67.18-4,.27ZM192.93,7.92l-.53-.84c-11.18,3.85-21.11,9.65-31.46,15.04,1.95.28,4.13.68,5.59-.02,4.91-2.33,9.56-5.06,14.31-7.63,4.03-2.18,8.06-4.37,12.09-6.55ZM270.6,129.47c-.97-.36-1.9-.76-2.86-1.07-4.23-1.34-8.72-2.27-12.63-4.09-3.49-1.62-5.84.14-8.71.73,6.78,2.31,13.59,4.31,20.35,6.43,2.3.72,3.11-.31,3.85-2ZM199.03,10.34c-7.7,4.04-15.26,8-22.82,11.97.06.24.13.47.19.71,1.85-.16,3.99.14,5.5-.56,5.66-2.63,11.12-5.56,16.64-8.42,1.04-.54,1.99-1.21,3.1-1.9-1.06-.73-1.86-1.28-2.6-1.8ZM191.79,134.77c-.07.19-.15.37-.22.56,5.82,2.7,11.64,5.4,17.55,8.14.88-.97,1.64-1.8,2.81-3.08-3.3-1.13-6.25-2.13-9.19-3.16-1.16-.41-2.52-.71-3.36-1.42-2.33-1.96-4.88-1.74-7.59-1.04ZM191.29,23.27c2.62.93,4.49,1,6.5-.07,3.64-1.92,7.42-3.63,11.13-5.45.48-.24.88-.61,1.34-.93-1.63-1.64-3.23-1.86-5.21-.68-1.47.88-3.14,1.5-4.68,2.3-2.93,1.52-5.82,3.09-9.09,4.83ZM366.31,76.21c0,.24-.02.49-.03.73,5,1.21,10.01,2.43,15.28,3.7-.85-2.45-1.54-4.43-2.29-6.62-4.37.74-8.67,1.46-12.97,2.18ZM276.44,126.36c.8-1.21,1.39-2.11,2.04-3.1-3.01-.97-6.05-1.46-8.38-2.82-2.9-1.7-4.88-.29-7.21.3-.05.19-.1.39-.16.58,4.5,1.65,8.99,3.31,13.7,5.04ZM207.74,132.41c-.06.2-.12.4-.18.6,1.44.61,2.9,1.2,4.33,1.83,1.43.63,2.85,1.29,4.31,1.96.44-.62.87-1.2,1.26-1.79,1.26-1.97.31-3.39-2.44-3.31-2.43.07-4.85.47-7.27.72ZM275.79,117.1c2.16.65,4.11,1.22,6.04,1.84,3.18,1.02,3.47.93,5.22-1.87-3.55-2-7.17-2.27-11.27.03ZM218.97,21.31c-1.72-.62-2.98-1.49-3.65-1.24-2.97,1.12-5.78,2.55-8.65,3.88,1.26.77,2.61,1.54,3.44,1.25,2.85-1.01,5.53-2.38,8.86-3.88ZM229.03,28.27c-2.04-3.51-6.02-4.3-8.19-1.74,2.69.57,5.24,1.11,8.19,1.74ZM290.33,112.02c3.54,1.64,4.88,1.32,5.07-1.24-1.67.41-3.25.8-5.07,1.24Z"/>
  <path d="M118.85,75.8c6.41,0,12.82,0,19.23,0,.3,0,.6,0,.9.02,6.62.26,8.65,2.75,5.38,7.61-3.38,5.01-7.55,9.65-11.44,14.41-1.19,1.45-3.04,1.64-5.04,1.61-9.8-.12-19.6-.18-29.41-.23-4.32-.02-5.51-1.01-3.77-4.34,2.22-4.24,1.69-8.45,1.09-12.74-.13-.94-.51-1.87-.62-2.81-.28-2.46.38-3.17,3.32-3.19,6.78-.06,13.57-.02,20.36-.02v-.31ZM137.86,81.39h-34.87c-.06,1.38-.16,2.47,2.06,2.48,9.63.03,19.26.09,28.88.29,2.37.05,3.44-.76,3.93-2.77ZM102.57,92.74c8.47,0,16.74.03,25.02-.02,2.02-.01,2.69-1.26,2.98-2.81-.47-.08-.76-.18-1.05-.18-8.29.06-16.58.12-24.87.19-2.31.02-2.54,1.16-2.07,2.82Z"/>
  <path d="M318.65,76.74c-1.28-.09-2.56-.15-3.83-.27-1.54-.14-2.82-.66-3.08-2.08-.28-1.5.52-2.7,2.12-3.26,3.21-1.11,6.54-.81,9.69.16.68.21,1.36,1.56,1.23,2.28-.25,1.39-.75,2.97-2.96,3.15-1.04.09-2.11.01-3.16.01Z"/>
  <path d="M278.68,89.21c-.34-.22-1.54-.65-1.55-1.08,0-1.05.15-2.46.95-3.07,1.7-1.29,3.77-2.29,5.83-3.18,2.01-.87,5.04.4,5.69,2.18.6,1.64-1,3.65-3.29,4.05-2.13.37-4.27.67-6.41.99-.22.03-.45.04-1.22.1Z"/>
  <path d="M139.51,108.64c1.13,0,2.35-.22,3.37.06,1.07.3,2.58.98,2.74,1.67.18.78-.71,2.3-1.55,2.58-3.23,1.08-6.67.96-9.89-.11-.7-.23-1.29-1.59-1.19-2.35.08-.61,1.21-1.43,2.03-1.6,1.43-.31,2.99-.19,4.5-.25Z"/>
  <path d="M108.84,106.57c1.56.2,3.15.31,4.68.62,1.89.37,2.78,1.47,2.48,3.12-.29,1.6-1.42,2.29-3.35,2.06-1.42-.17-2.85-.23-4.26-.43-2.82-.4-4.06-1.48-3.83-3.24.22-1.69,1.11-2.11,4.28-2.13Z"/>
  <path d="M263.73,89.32c-1.69,0-3.91-2.3-3.96-4.12-.04-1.36,1.8-3.01,3.4-3.05,2.07-.05,4.79,1.82,4.85,3.35.07,1.68-2.33,3.81-4.29,3.82Z"/>
  <path d="M259.7,68.01c-.05-1.54,1.98-3.29,3.91-3.37,1.62-.07,4.32,1.82,4.38,3.07.08,1.42-2.62,4.03-4.19,4.06-1.8.04-4.04-2.03-4.1-3.76Z"/>
  <path d="M206.04,85.54c-.03,1.61-2.38,3.48-4.4,3.5-1.75.02-3.68-2.13-3.61-4.03.05-1.43,1.87-3.01,3.47-3.03,2.19-.02,4.58,1.85,4.55,3.56Z"/>
  <path d="M191.86,55.83c1.67-.05,3.92,1.65,4.04,3.05.13,1.57-2.11,3.75-3.96,3.84-1.99.1-4.13-1.81-4.22-3.77-.07-1.38,2.17-3.06,4.14-3.12Z"/>
  <path d="M242.66,71.87c-2.14-.05-4.04-2.08-3.93-4.2.07-1.34,2.33-2.73,4.31-2.64,1.71.08,3.85,1.97,3.74,3.31-.13,1.56-2.47,3.57-4.12,3.53Z"/>
  <path d="M118.91,64.59c1.84.01,3.84,1.9,3.86,3.64.02,1.85-1.48,3.59-3.13,3.62-2.23.04-4.57-2.18-4.49-4.26.05-1.37,2.11-3.01,3.76-2.99Z"/>
  <path d="M133.71,59.77c-.02,1.49-1.85,3.22-3.46,3.27-1.73.05-4.27-2.25-4.3-3.88-.02-1.34,2.39-3.55,3.85-3.53,1.73.02,3.93,2.36,3.91,4.14Z"/>
  <path d="M164.93,68.19c0,1.5-2.03,3.26-3.73,3.26-1.88,0-4.36-2.33-4.32-4.05.03-1.26,2.29-3.13,3.71-3.09,1.73.06,4.34,2.39,4.34,3.88Z"/>
  <path d="M242.31,82.28c1.81.19,4.07,2.18,3.95,3.47-.15,1.52-2.83,3.69-4.43,3.59-1.85-.12-3.8-2.5-3.55-4.32.2-1.46,2.35-2.91,4.03-2.74Z"/>
  <path d="M253.42,55.93c1.71.02,3.8,1.82,3.77,3.25-.03,1.7-2.43,4.14-4.01,4.08-1.73-.07-3.66-2.09-3.64-3.8.03-1.8,1.95-3.55,3.88-3.53Z"/>
  <path d="M226.06,68.32c0,1.33-2.33,3.46-3.72,3.42-1.99-.06-3.94-2.19-3.96-4.32-.01-1.44,1.99-3.13,3.63-3.06,1.48.06,4.06,2.58,4.05,3.96Z"/>
  <path d="M200.99,64.42c1.83-.06,4.25,1.93,4.31,3.54.05,1.42-2.09,3.42-3.79,3.53-1.82.12-3.95-1.97-4.03-3.94-.06-1.45,1.76-3.07,3.5-3.13Z"/>
  <path d="M277.07,59.45c0,1.47-2.24,3.56-3.8,3.55-1.84-.01-3.81-1.81-3.79-3.46.02-1.76,1.83-3.61,3.57-3.63,1.85-.02,4.03,1.9,4.02,3.54Z"/>
  <path d="M181.06,64.58c1.89-.02,4,1.64,4.09,3.22.09,1.57-1.87,3.65-3.52,3.71-1.94.08-4.3-2.22-4.35-4.25-.03-1.23,1.99-2.66,3.78-2.68Z"/>
  <path d="M228.68,59.23c-.03-1.75,1.6-3.34,3.46-3.36,1.64-.01,4.07,2.15,4.04,3.6-.04,1.56-2.14,3.61-3.71,3.62-1.89.02-3.75-1.88-3.79-3.87Z"/>
  <path d="M216.47,94.33c-.06,1.43-2.25,3.14-3.99,3.11-1.84-.03-4.04-2.02-3.99-3.6.05-1.54,2.08-3.24,3.83-3.21,1.9.04,4.21,2.1,4.15,3.7Z"/>
  <path d="M103.07,67.55c.04,1.51-1.77,3.07-3.59,3.11-2.06.04-4.62-1.92-4.61-3.52,0-1.35,2.37-3.16,4.18-3.2,1.61-.04,3.98,2.1,4.02,3.62Z"/>
  <path d="M119.68,47.59c1.94.04,3.93,2.07,3.8,3.88-.09,1.34-2.31,3.07-3.83,2.97-1.76-.11-4.09-2.03-4.03-3.32.07-1.59,2.35-3.57,4.06-3.53Z"/>
  <path d="M112.71,59.09c.02,1.56-2.25,3.8-3.82,3.76-1.61-.04-3.56-1.88-3.62-3.42-.07-1.73,2.01-3.74,3.96-3.83,1.51-.07,3.46,1.89,3.48,3.49Z"/>
  <path d="M206.34,101.65c-.07,1.66-2.13,3.4-3.92,3.31-2.11-.11-3.89-1.67-3.84-3.35.05-1.71,1.8-3.31,3.6-3.3,2.05,0,4.22,1.75,4.15,3.35Z"/>
  <path d="M178.48,101.43c-.03-1.77,1.6-3.41,3.41-3.43,1.99-.02,4.27,1.71,4.34,3.3.07,1.69-1.7,3.37-3.53,3.35-2.31-.01-4.19-1.45-4.22-3.22Z"/>
  <path d="M167.33,58.51c0-1.31,1.78-2.68,3.5-2.7,2.03-.02,4.03,1.7,4.02,3.46,0,1.57-1.77,3.35-3.32,3.38-1.97.03-4.19-2.16-4.19-4.14Z"/>
  <path d="M151.28,72.72c1.58.02,3.79,1.94,3.77,3.28-.03,1.83-1.8,3.65-3.49,3.6-2.01-.06-4.08-2.07-4.08-3.96,0-1.43,1.98-2.95,3.8-2.93Z"/>
  <path d="M151.14,45.45c-1.92-.02-3.8-1.74-3.78-3.44.02-1.56,1.79-3,3.66-2.99,2.04.02,4.3,1.76,4.29,3.3-.01,1.57-2.12,3.15-4.17,3.12Z"/>
  <path d="M242.92,47.71c1.66.02,3.8,1.93,3.71,3.31-.1,1.46-2.19,3.43-3.68,3.46-1.38.03-4.5-2.44-4.54-3.59-.04-1.32,2.62-3.2,4.5-3.17Z"/>
  <path d="M154.04,59.79c-.04,1.46-1.83,2.93-3.52,2.9-1.72-.03-4.06-2.24-4.06-3.83,0-1.31,2.14-3.18,3.64-3.18,1.74,0,4,2.35,3.94,4.11Z"/>
  <path d="M232.16,97.35c-1.96.03-3.68-1.41-3.77-3.14-.08-1.67,1.63-3.13,3.68-3.15,2.24-.02,4.31,1.39,4.26,2.92-.05,1.66-2.14,3.34-4.18,3.37Z"/>
  <path d="M270.25,76.13c-.02-1.27,1.82-2.81,3.4-2.84,1.73-.03,4.32,1.85,4.31,3.13-.02,1.5-2.09,3.89-3.38,3.88-1.76,0-4.29-2.45-4.32-4.17Z"/>
  <path d="M185.58,50.91c.01,1.53-1.76,3.15-3.51,3.22-1.62.07-4.35-2.01-4.38-3.34-.03-1.29,2.4-3.25,4.11-3.31,1.8-.07,3.76,1.71,3.77,3.43Z"/>
  <path d="M225.87,85.58c-.03,1.64-2.13,3.48-3.88,3.4-1.94-.09-3.74-2.05-3.67-4,.05-1.41,1.71-2.76,3.4-2.77,2.07,0,4.18,1.71,4.15,3.37Z"/>
  <path d="M98.47,54.29c-1.82-.02-4.05-2.03-3.98-3.59.05-1.19,2.58-3.16,4.07-3.16,1.5,0,3.9,2.22,3.83,3.55-.07,1.32-2.39,3.22-3.93,3.2Z"/>
  <path d="M143.74,67.8c.02,1.27-2.3,3.72-3.6,3.79-1.46.08-3.6-2.35-3.65-4.12-.04-1.4,1.93-3.19,3.5-3.2,1.59,0,3.72,2,3.75,3.54Z"/>
  <path d="M282.81,65.06c1.7-.03,4.18,2.18,4.16,3.7-.02,1.38-1.9,3.06-3.41,3.05-2.08-.01-4.17-1.8-4.18-3.57,0-1.64,1.62-3.15,3.44-3.18Z"/>
  <path d="M222.65,54.27c-1.86,0-4.46-1.99-4.52-3.45-.05-1.33,2.2-3.35,3.71-3.34,1.66.01,4.08,2.31,4.03,3.84-.04,1.33-1.82,2.96-3.22,2.96Z"/>
  <path d="M171.44,79.96c-1.69-.01-3.56-1.88-3.61-3.62-.04-1.23,2.16-3.19,3.61-3.2,1.77-.02,4.07,1.96,4.1,3.53.03,1.33-2.43,3.31-4.1,3.29Z"/>
  <path d="M192.44,97.37c-1.97.02-4.27-1.92-4.23-3.58.03-1.53,1.67-3.13,3.24-3.16,1.95-.04,4.32,1.85,4.37,3.48.05,1.55-1.71,3.24-3.38,3.26Z"/>
  <path d="M252.38,73.56c1.4-.05,4.21,2.12,4.24,3.29.04,1.2-2.41,3.68-3.7,3.74-1.89.1-3.7-1.77-3.76-3.88-.04-1.46,1.63-3.1,3.22-3.16Z"/>
  <path d="M290.82,76.34c-.02-1.38,1.74-2.86,3.48-2.92,1.75-.07,4.06,1.79,4.04,3.24-.02,1.44-2.06,3.58-3.38,3.56-2.05-.04-4.11-1.97-4.13-3.88Z"/>
  <path d="M157.73,84.22c-.03-1.45,1.37-2.45,3.49-2.48,2.03-.03,4.38,1.55,4.33,2.93-.05,1.41-2.51,3.55-4.12,3.58-1.59.03-3.65-2.21-3.69-4.03Z"/>
  <path d="M191.65,73.54c1.81.04,4.06,1.93,3.99,3.35-.06,1.33-2.39,3.27-3.9,3.25-1.66-.02-4.05-2.55-3.94-4.17.08-1.16,2.14-2.46,3.85-2.43Z"/>
  <path d="M211.64,55.87c1.83.04,4.17,2.14,4.12,3.71-.05,1.36-2.12,3.12-3.67,3.12-1.82,0-3.88-2.09-3.84-3.88.03-1.57,1.66-2.98,3.4-2.95Z"/>
  <path d="M181.65,88.57c-1.93,0-3.59-1.52-3.64-3.3-.04-1.39,2.15-3.35,3.72-3.34,1.71.02,3.92,1.87,3.87,3.24-.06,1.58-2.17,3.4-3.95,3.39Z"/>
  <path d="M303.99,65.36c1.95.04,3.6,1.56,3.58,3.27-.02,1.62-2.03,3.29-3.91,3.25-1.98-.04-3.49-1.37-3.48-3.06.02-2.05,1.63-3.51,3.81-3.47Z"/>
  <path d="M232.22,73.47c1.7-.03,3.7,1.68,3.79,3.23.08,1.44-1.9,3.47-3.44,3.53-1.77.07-3.85-1.99-3.88-3.85-.02-1.28,1.93-2.88,3.54-2.91Z"/>
  <path d="M215.59,76.71c-.05,1.47-1.97,3.32-3.46,3.33-1.81.02-3.89-2.25-3.81-4.17.06-1.33,1.7-2.66,3.28-2.66,2.02,0,4.05,1.79,3.99,3.5Z"/>
  <path d="M205.51,51.03c0,1.4-1.85,3.09-3.39,3.08-1.52,0-4.22-2.47-4.17-3.81.05-1.23,1.96-2.88,3.34-2.88,1.89,0,4.22,1.98,4.23,3.6Z"/>
  <path d="M160.65,47.76c2.13-.02,3.87,1.44,3.85,3.25-.01,1.59-1.57,3.21-3.12,3.24-1.73.04-4.43-2.16-4.4-3.59.02-1.17,2.19-2.89,3.67-2.91Z"/>
  <path d="M172.05,45.11c-2.04,0-3.95-1.76-3.88-3.58.05-1.26,2.11-2.87,3.69-2.87,1.74,0,3.69,1.6,3.72,3.06.03,1.67-1.77,3.39-3.53,3.39Z"/>
  <path d="M250.16,93.52c.12-1.46,1.93-2.72,3.76-2.62,2.25.12,4.12,1.5,3.98,2.94-.16,1.65-2.26,3.3-4.06,3.19-1.95-.12-3.81-1.9-3.68-3.51Z"/>
  <path d="M130.69,45.33c-2.03-.04-3.83-1.6-3.84-3.33,0-1.6,1.58-2.89,3.46-2.82,2.14.08,4.26,1.75,4.22,3.33-.03,1.53-1.84,2.86-3.84,2.82Z"/>
  <path d="M235.93,42.31c-.07,1.49-2.37,3.16-4.26,3.09-1.95-.08-3.46-1.48-3.43-3.18.03-1.78,1.67-2.97,3.93-2.86,2,.1,3.82,1.54,3.76,2.95Z"/>
  <path d="M143.95,50.86c.06,1.56-1.67,3.33-3.3,3.38-1.5.04-4.19-1.98-4.3-3.23-.11-1.21,2.11-3.17,3.61-3.18,1.95-.02,3.93,1.49,3.99,3.03Z"/>
  <path d="M191.62,39.05c2.03,0,3.98,1.45,4.02,2.97.03,1.52-1.94,3.06-3.92,3.06-1.9,0-3.69-1.73-3.62-3.5.06-1.52,1.47-2.54,3.52-2.53Z"/>
  <path d="M292.17,64.25c-2.1.03-4.38-1.72-4.43-3.4-.04-1.35,1.77-2.97,3.42-3.05,1.62-.08,4.01,2.06,4,3.58-.01,1.35-1.57,2.85-2.98,2.87Z"/>
  <path d="M168.13,93.12c.06-1.38,1.71-2.66,3.31-2.57,1.99.11,4.09,1.87,3.97,3.35-.1,1.26-2.49,3.02-3.98,2.93-1.49-.1-3.37-2.21-3.3-3.71Z"/>
  <path d="M211.84,45.17c-1.92-.04-3.77-1.8-3.69-3.52.06-1.33,1.89-2.65,3.59-2.61,1.99.05,3.58,1.46,3.5,3.1-.08,1.56-1.76,3.06-3.4,3.03Z"/>
  <path d="M113.34,42.61c-.02,1.49-1.49,2.64-3.4,2.66-2.2.02-3.79-1.27-3.74-3.03.04-1.6,1.63-2.93,3.45-2.87,1.89.06,3.72,1.66,3.7,3.24Z"/>
  <path d="M262.12,48.6c2.18-.04,4.61,1.51,4.08,2.97-.41,1.13-1.73,2.37-3.02,2.85-1.41.53-4.3-2.01-4.39-3.5-.07-1.09,1.66-2.29,3.33-2.32Z"/>
  <path d="M163.08,103.5c-2.01,0-3.77-1.52-3.85-3.33-.07-1.44,1.38-2.6,3.18-2.56,2.05.05,3.88,1.35,3.89,2.78,0,1.58-1.57,3.11-3.22,3.11Z"/>
  <path d="M220.26,101.4c.26-1.2,1.27-2,3.02-2,1.58,0,2.59.64,2.6,2.06.01,1.41-1.42,2.73-2.86,2.73-1.48,0-2.79-1.19-2.76-2.78Z"/>
  <path d="M190.09,108.19c.81-.59,1.46-1.26,1.67-1.17.64.26,1.11.82,1.64,1.26-.39.3-.81.87-1.16.84-.61-.05-1.17-.47-2.16-.92Z"/>
  <path d="M36.18,100.32c1.91-1.76,3.78-3.1,6.6-3.51,4.17-.61,8.16-1.79,11.62-3.98,8.15-5.16,10.25-12.29,9-20.36-.99-6.37-4.77-11.45-10.86-15.29-.24-.15-.54-.28-.7-.48-.69-.89-2.87-1.17-1.67-2.83,1.12-1.56,3.47-2.35,5.26-1.48,2,.97,3.96,2.13,5.63,3.47,12.1,9.77,12.76,26.54,1.81,37.23-4.66,4.55-10.16,7.62-17.09,8.96-3.13.61-6.16.19-9.58-1.72Z"/>
  <path d="M40.63,84.95c-7.64,0-13.62-5.06-13.65-11.54-.03-6.94,6.26-12.57,13.94-12.48,7.62.08,14.04,5.62,14.02,12.1-.02,6.2-6.89,11.93-14.32,11.93ZM33.68,72.92c.02,3.16,3.6,6.22,7.23,6.19,3.88-.04,7.38-2.84,7.29-5.84-.11-3.6-3.36-6.43-7.37-6.42-4.01.01-7.18,2.7-7.15,6.08Z"/>
  <path d="M40.84,69.61c2.03.05,4.02,1.79,4.01,3.51-.02,1.72-1.9,3.33-3.88,3.33-2.31,0-3.87-1.59-3.82-3.93.03-1.65,1.69-2.96,3.7-2.91Z"/>
</svg>