<?xml version="1.0" encoding="UTF-8"?>
<svg id="Layer_4" xmlns="http://www.w3.org/2000/svg" viewBox="0 0 542 225.5">
  <path d="M392.84,132.27l10.44.02s0-.03,0-.04l-10.48-.02s.03.02.04.04Z"/>
  <path d="M385.83,132.22l-13.97-.02s-.05.02-.08.03c0,0,0,0,0,0l14.09.03s-.03-.02-.04-.04Z"/>
  <path d="M363.75,132.19l-9.86-.02s0,.02-.01.03l9.83.02s.03-.02.05-.03Z"/>
  <path d="M533.18,91.85c-6.85-18.48-20.52-32.16-40.62-45.51-12.44-8.26-65.76-29.84-85.44-35.18C374.42,2.3,340.21-.33,305.01-2.73c-20.99-1.43-41.99-1.65-63.01-.66-26.36,1.25-52.21,4.46-77.7,9.02-19.55,3.5-38.13,7.66-56.33,13.56-15.21,4.92-70.83,27.81-77.46,33.09C8.51,69.81-3.96,87.97-1.39,113.47c.14,1.41,7.98,16.73,7.42,18.09l12.69.02c-1.28-1.85-2.47-3.74-3.56-5.68-7.47-13.25-7.07-26.49-.89-39.92,10.06-21.88,25.03-29.78,48.52-43,12.99-7.32,26.93-12.94,42.27-18,2.64-.87,5.62.91,8.51.82,9.57-.32,15.36-2.85,16.91,3.66-22.56,6.27-42.93,14.74-60.03,26.25-14.39,9.69-26.77,20.53-31.79,34.02-4.35,11.68-2.41,23.27,5.39,34.17,1.92,2.68,4.03,5.25,6.32,7.74l10.65.02c-3.25-3.24-5.97-6.74-7.87-10.51-.66-1.32-.43-2.09,1.24-2.81.91-.39,1.66-1.05,2.64-1.23,8.98-1.71,17.99-3.34,27.84-5.16-.47,1.79-.74,2.57-.87,3.35-.88,5.67,3.63,9.4,12.09,10.09,6.11.5,12.06.19,17.8-1.35,9.61-2.57,12.95-7.43,9.57-13.86-.23-.44-.44-.88-.69-1.37,10.99-1.27,21.81-2.44,32.58-3.77,17.68-2.19,35.33-4.5,53.01-6.7,5.57-.7,11.21-1.17,16.8-1.83,3.79-.45,7.52-1.19,11.33-1.49,2.14-.17,4.78-.15,6.51.54,5.77,2.28,11.23,4.91,17.03,7.5-3.38,1.97-6.52,3.8-10.19,5.95-1.87-1.36-3.5-2.87-5.59-4.01-13.05-7.13-38.13-6.64-51.58.15-11.24,5.67-10.45,20.74,4.28,25.05,2.38.69,4.91,1.16,7.46,1.59.13.01.25.03.37.06.12.02.24.04.37.06l27.2.05c1.17-.38,2.37-.74,3.63-1.06,10.22-2.62,15.12-8.06,16.02-15.24.12-.97,1.32-2.08,2.5-2.76,2.71-1.58,5.8-2.87,8.56-4.41,2.3-1.28,4.14-1.5,6.52.01,2.05,1.31,4.61,2.26,6.32,3.08.87,3.9,1.3,7.39,2.48,10.77,1.57,4.49,6.76,7.4,12.93,8.26,2.36.33,4.52.84,6.55,1.46h-.4s.03,0,.04.01h.41c5.64,1.75,10.19,4.47,14.93,7.16,20.72,11.74,41.45,23.49,62.17,35.23.73.41,1.49.79,2.52,1.34-74.75,17.24-148.75,16.31-223.74-.86,3.64-2.29,6.67-4.31,9.89-6.2,18.51-10.87,36.65-22.02,56.68-31.73,3.92-1.9,7.72-3.65,12-5.04l-27.13-.04c1.5.25,3,.49,4.48.77,1.07.2,2.18.32,4.08.59-1.43,1.02-2.19,1.7-3.15,2.24-21.28,11.93-42.57,23.86-63.96,35.71-1.1.61-3.44.91-4.73.57-4.58-1.21-8.97-2.73-13.41-4.17-22.55-7.31-42.84-16.78-59.54-29.18-2.85-2.12-5.53-4.37-7.93-6.75l-10.65-.02c8.75,9.5,20.12,17.62,33.68,24.54,15.56,7.95,31.96,14.92,50.39,19.65,1.06.27,1.97.79,2.44.99-3.19,2.6-6.92,4.78-8.93,7.51-2.04,2.79-2.39,6.12-3.56,9.43-4.14-1.37-8.44-2.74-12.66-4.21-20.62-7.16-39.69-15.84-56.94-26.17-15.19-9.09-27.59-19.54-36.05-31.79l-12.73-.02c5.54,6.24,10.83,13.26,17.64,19.57,6.56,6.07,14.3,11.66,22.28,16.96,7.91,5.25,16.5,10.09,25.32,14.68,4.87,2.53,11,3.97,16.21,6.26,22.77,10.02,62.43,19.68,87.34,23.84,18.44,3.08,37.21,4.67,56.04,6.13,26.66,2.07,53.29,1.61,79.93-.21,22.54-1.54,44.76-4.24,66.23-8.98,32.79-7.23,64.27-16.39,92.05-30.3,21.9-10.96,40.46-23.94,53.6-40.05,1.84-2.25,3.23-4.67,5.33-7.01h.36c-1.4-3.38,7.15-18.45,7.37-21.92.42-6.89-.04-11.99-2.54-18.75ZM235.92,123.22c-5.83,1.9-12.42,2.76-16.56,3.64-10.64-.86-18.91-1.36-23.96-6.64-3.64-3.81-3.18-7.16,1.54-10.4,10.03-6.88,31.34-7.12,41.69-.46,7.18,4.62,6.27,10.94-2.71,13.86ZM263,213.13c-12.74-.67-25.2-.86-37.42-2.08-18.46-1.83-36.88-4.03-55.09-6.74-10.89-1.62-21.39-4.43-31.98-6.86-5.8-1.33-6.64-2.63-5.5-6.71.98-3.47,2.34-6.76,5.92-9.6,2.31-1.83,4.32-2.16,7.72-1.44,13.55,2.87,27.08,5.88,40.87,8.17,23.47,3.89,47.35,6.24,71.62,6.58,1.18.02,2.35.09,3.87.14v18.53ZM122.21,21.18c31.03-8.22,62.41-13.04,94.84-15.95,32.72-2.93,65.53-3.21,98.35-.3,32.63,2.9,64.05,6.18,94.96,14.18-8.37,2.25-12.63,2.51-16.23,7.55-10.76-4.82-23.27-6.3-35.02-9.08-17.97-4.25-36.63-6.64-55.55-7.38-20.21-.79-40.54-.92-60.78-.55-17.63.32-35.11,2.33-52.13,5.47-13.82,2.54-27.46,5.52-41.07,8.52-3.47.76-6.54,2.33-10.06,3.62-2.61-5.65-7.69-3.88-17.3-6.08ZM406.17,36.57c6.47,2.12,12.85,4.38,19.1,6.77,6.05,2.32,12.12,4.68,17.72,7.43,3.19,1.56,5.44,3.95,8.13,5.96,5.71,4.27,9.55,9.63,17.16,12.79,3.68,1.53,5.82,3.73,6.5,6.61.25,1.07.69,2.33,1.75,3.08,6.56,4.65,8.55,10.49,10.02,16.43,2.58,10.38-1.4,20.1-7.36,29.58-.28.44-.69.84-1.08,1.25-2.95,3.05-2.91,2.99-7.71,1.38-1.81-.61-3.86-.89-5.8-1.33-30.95-7.03-61.84-14.2-92.89-21.04-18.43-4.05-37.13-7.56-55.7-11.33-5.42-1.1-10.82-2.25-17.63-3.67,3.78-2.59,6.67-4.94,10.08-6.87,18.09-10.23,36.35-20.33,54.46-30.53,8.37-4.72,16.79-9.42,24.76-14.42,5.7-3.58,11.68-4.31,18.48-2.09ZM113.14,117.91c-3.43,1.04-7.08,1.74-10.74,2.62-3.28-.86-6.43-1.31-8.92-2.41-4.24-1.88-3.73-5.52,1.1-6.54,4.96-1.05,10.29-1.49,15.52-1.78,3.68-.2,5.93,1.52,6.88,3.81.93,2.24-1.26,3.53-3.84,4.31ZM191.65,82.02c-1.18.77-2.33,1.64-3.75,2.15-6.46,2.32-20.88-.38-24.67-4.53-2.03-2.22-1.65-4.05,1.29-5.72.81-.46,1.75-.86,2.72-1.15,8.79-2.61,23.19,1.31,26.75,7.36-.85.7-1.52,1.35-2.35,1.89ZM200.23,94.12c.55-.81.82-1.32,1.22-1.79,7.94-9.16,4.32-17.88-10.1-22.55-8.2-2.65-17.1-3.93-26.33-2.08-6.07,1.22-9.77,3.9-11.44,7.92-2.88,6.92,1.08,13.96,10.47,17.56,4.42,1.7,9.33,2.84,14.5,4.38-7.23.77-14.12,1.52-21.02,2.23-27.56,2.82-55.12,5.61-82.68,8.43-3.58.37-7.2.66-10.68,1.28-5.06.9-10.02,2.06-15.31,3.18-2.55-2.35-2.5-5.47-2.58-8.44-.23-8.83,1.88-17.32,9.67-24.83,1.14-1.1,1.88-2.42,2.48-3.7,1.3-2.79,3.85-4.82,8.01-5.77,5.27-1.2,8.08-3.65,9.94-7.04,3.9-7.1,11.66-11.65,22.68-13.57,4.8-.83,8.78-1.89,10.59-5.34.6-1.15,2.49-2.25,4.21-2.84,5.78-1.98,11.73-3.75,17.64-5.56,4.21-1.29,7.86-.68,11.34,1.31,13.15,7.53,26.44,14.95,39.58,22.48,15.32,8.79,30.55,17.65,45.8,26.49,2.15,1.24,4.15,2.6,6.99,4.39-12.3,1.35-23.42,2.57-34.98,3.84ZM262.59,98.12c-8.12-4.41-16.44-8.66-24.32-13.25-17.94-10.45-35.62-21.09-53.49-31.6-10.2-6-20.57-11.87-30.84-17.81-2.06-1.19-4.01-2.48-6.68-4.13,3.24-1.1,5.74-2.21,8.49-2.83,4.1-.93,8.41-1.44,12.56-2.29,4.36-.89,8.6-2.04,12.95-2.95,3.55-.74,7.17-1.35,10.79-1.92,7.98-1.26,15.97-2.51,24-3.63,2.44-.34,5.11-.59,7.5-.29,4.26.53,8.17.17,11.99-.99,3.81-1.16,7.64-1.29,11.62-.37,4.84,1.12,9.7,1.16,14.54-.1,4.03-1.05,8.08-.87,12.04.14,6.06,1.54,12.02,1.89,18.38.47,2.77-.62,6.12-.15,9.19-.08,1.55.04,3.13.51,4.64.42,13.69-.83,26.19,3.38,39.52,4.02.82.04,1.7.23,2.41.5,11.16,4.39,24.14,5.47,35.92,8.72,1.39.38,2.74.82,4.74,1.42-9.94,5.64-19.14,10.9-28.41,16.12-16.93,9.52-33.94,18.97-50.83,28.52-12.76,7.21-25.41,14.51-38.09,21.79-3.78,2.17-4.79,2.2-8.63.12ZM308.22,126.44c-10.61-.32-17.94-2.4-22.16-7.92-2.54-3.32-1.75-6.81,2.55-9.13,10.25-5.54,26.92-7.86,40.22-.29,7.28,4.14,6.79,9.61-1.1,13.29-6.3,2.94-13.58,3.94-19.51,4.05ZM349.39,153.09c-10.34-5.77-20.22-11.9-30.27-17.9-1.22-.73-2.21-1.64-2.93-2.17.92-.24,1.84-.47,2.76-.7.31-.39.79-.65,1.46-.62.51.02,1-.03,1.48-.11.6-.15,1.19-.3,1.78-.45.43-.13.85-.25,1.29-.36.2-.05.41-.08.61-.12,1.98-.52,3.92-1.08,5.78-1.74,14.37-5.06,14.97-18.26,1.57-24.28-11.14-5-35.69-6.02-48.61.23-1.35.65-2.54,1.45-4.19,2.4-2.33-1.46-4.64-2.92-7.31-4.59,8.54-3.87,16.03-8.34,27.42-6.03,17.64,3.57,35.49,6.69,53.11,10.32,15.09,3.11,30.02,6.59,44.95,10.04,19.66,4.55,39.29,9.16,58.86,13.88,1.65-.29,3.38.09,4.7,1.22.23.08.46.15.68.23h-.44s.04.04.05.05h.53c2.38.87,4.63,2.01,7.05,2.97-6.78,6.21-15.19,10.75-23.68,15.23-17.19,9.08-36.02,16.35-56.16,22.15-1.08.31-3.01.32-3.84-.12-12.31-6.44-24.67-12.85-36.66-19.54ZM399.96,195.83c-.19.62-1.7,1.28-2.81,1.54-22.63,5.38-45.48,10.34-69.51,12.15-16.9,1.27-33.87,2.17-50.83,3.12-4.75.27-4.8.09-4.82-3.06-.03-4.94,0-9.88,0-15.06,8.57-.3,16.43-.38,24.22-.88,30.81-1.96,60.86-6.25,89.95-13.29,3.71-.9,6-.4,8.63,1.27,6.37,4.04,6.78,8.97,5.16,14.2ZM524.49,111.58c-.57,6.96-3.48,13.48-7.76,19.65.16.91-.4,2.08-1.38,2.23-.1.01-.19.04-.29.06-1.52,2.01-3.16,3.98-4.92,5.92-14.73,16.27-35.15,28.91-58.82,39.41-13.17,5.84-27.22,10.56-41.72,15.24-1.04-6.64-2.37-12.99-11.57-17.47,1.92-.56,3.41-1,4.9-1.42,24.81-7.12,46.95-16.94,65.58-29.85,5.82-4.03,10.97-8.33,15.29-12.93h.52s.05-.04.08-.06h-.55c7.06-7.54,11.87-15.87,13.65-25.14,1.9-9.89-1-19.33-7.73-28.12-14.09-18.42-35.49-32.31-62.35-42.59-7.73-2.96-15.83-5.51-24.2-8.39,1.73-.33,16.78-8.96,23.26-6.21,12.19,5.17,25.03,9.73,36.7,15.36,17,8.2,30.07,15.84,39.44,24.86,15.5,14.91,23.36,31.3,21.87,49.44Z"/>
  <path d="M423.06,132.33s.03-.03.04-.04h-7.54s.03.02.04.03h7.45Z"/>
  <path d="M155.63,131.86l10.11.02s-.01-.01-.02-.02l-10.11-.02s0,.01.01.02Z"/>
  <path d="M147.01,131.82l-13.9-.03s-.03.02-.05.03l13.98.02s-.03-.02-.04-.02Z"/>
  <path d="M125.82,131.78l-9.99-.02s0,.02-.01.03l9.97.02s.02-.02.03-.03Z"/>
  <path d="M94.99,131.72l-8.22-.02s-.01.03-.02.04h8.29s-.03-.01-.04-.02Z"/>
  <polygon points="254.27 132.01 254.27 132.02 265.67 132.04 265.67 132.03 254.27 132.01"/>
  <path d="M216.5,156.89c0-6.78,5.65-11.72,16.25-14.25,13.52-3.22,28.58.2,34.26,7.77,5.43,7.24.29,16.74-10.78,20.18-8.09,2.52-16.26,2.71-24.63.8-9.66-2.2-15.11-7.44-15.1-14.5ZM243.34,165.16c5.12-.11,9.65-1.37,13.54-3.51,4.17-2.3,5.06-5.7,2.68-8.9-3.31-4.43-9.29-5.9-16.14-6.05-6.56-.14-12.52,1.08-16.45,4.88-3.35,3.24-2.3,7.68,2.31,10.16,4.05,2.18,8.77,3.31,14.06,3.41Z"/>
  <path d="M300.77,150.56c7.53.14,14.38,1.42,20.03,4.83,4.61,2.78,6.12,6.27,4.61,10.24-1.45,3.81-5.77,5.62-11.25,6.24-8.7.98-16.84.08-23.93-3.67-4.72-2.5-6.69-5.78-6.27-9.71.41-3.84,3.61-6.42,9.29-7.29,2.45-.38,5.01-.43,7.52-.63ZM308.68,166.12c5.77.06,8.22-.67,9.21-2.37,1.18-2.03-.04-4.18-3.75-5.94-5.15-2.46-11.01-3.26-17.18-2.45-5.66.74-6.98,3.7-3.07,6.52,4.28,3.09,9.91,4.09,14.79,4.24Z"/>
  <path d="M280.2,139.17c3.08-.02,5.99,1.57,6.08,3.32.08,1.71-2.83,3.44-5.9,3.5-3.25.06-6.58-1.54-6.67-3.22-.1-1.95,2.82-3.57,6.49-3.6Z"/>
  <path d="M278.23,177.96c-3.1-.06-5.51-1.56-5.39-3.37.11-1.75,3.08-3.33,6.11-3.25,2.64.06,4.97,1.53,4.98,3.13.01,1.88-2.72,3.56-5.7,3.5Z"/>
  <path d="M260.2,129.09c-3-.06-5.61,1.19-5.93,2.78,0,.12-.02.24-.03.36.03,1.71,2.53,3.32,5.27,3.35,2.72.02,6.16-1.86,6.13-3.35-.03-1.58-2.62-3.08-5.44-3.13Z"/>
  <path d="M195.36,170.92c-2.18-.26-4.22-.99-4.35-2.94-.12-1.81,2.68-3.28,6.11-3.19,2.53.06,4.54.78,4.63,2.65.08,1.74-3.14,3.52-6.38,3.48Z"/>
  <path d="M342.87,171.79c-1.99-1.37-3.35-2.31-4.71-3.24,1.15-.63,2.22-1.7,3.48-1.81,2.41-.21,4.28.82,4.24,2.48-.02.69-1.54,1.37-3.01,2.57Z"/>
  <path d="M264.57,54.75c8.23.08,16.03,1.09,23.13,4.07,12.94,5.43,14.04,17.35,2.45,24.04-11.73,6.77-30.9,6.94-44.83,1.51-10.02-3.91-14.32-10.56-11.52-17.96,1.27-3.37,4.49-5.79,8.76-7.64,6.68-2.89,14.07-4.14,22.02-4.02ZM263.6,82.6c8.02.06,14.03-1.34,20.57-4.36,7.11-3.28,8.16-9.75,1.48-13.42-12.05-6.61-28.84-7.18-41.32.41-4.52,2.75-5,6.72-1.24,9.98,5.54,4.81,13.33,6.89,20.5,7.38Z"/>
  <path d="M321.6,55.08c-22.14-1.05-29.99-11.06-25.25-21.72,2.5-5.63,10.3-8.2,18.6-9.59,15.24-2.56,30,3.69,31.5,13.54.96,6.28-3.17,11.36-11.29,14.48-4.76,1.83-10.47,2.57-13.56,3.29ZM322.17,47.19c4.04.09,8.26-1.49,12.02-3.76,4.34-2.63,5.06-6.19,1.99-9.52-5.47-5.91-19.97-7.11-28.39-2.35-6.53,3.69-6.52,8.86.12,12.52,3.74,2.06,8.12,3.06,14.26,3.1Z"/>
  <path d="M219.63,22.75c3.74.55,7.5.85,10.97,1.67,9.13,2.14,14.88,7.23,14.93,12.81.07,7.44-5.08,12.73-14.65,15.33-8.64,2.35-17.17,2.58-25.47-.48-9.05-3.33-12.38-8.82-11.75-15.32.63-6.39,6.77-10.23,15.37-12.4,3.33-.84,6.99-1.08,10.6-1.61ZM219.57,28.32c-5.17.15-10.46,1.05-14.45,4-4.76,3.52-4.29,8.16,1.05,11.27,7.24,4.21,18.5,4.35,26.07.33,6.32-3.36,6.62-8.56.73-12.27-3.6-2.26-7.93-3.27-13.4-3.33Z"/>
  <path d="M277.84,44.37c-.05,1.7-2.49,3.11-5.37,3.1-3.38-.02-5.78-1.46-5.68-3.41.1-1.88,2.83-3.56,5.73-3.54,2.63.03,5.37,2.01,5.32,3.85Z"/>
  <path d="M284.73,26.06c.1,1.68-2.35,3.21-5.18,3.24-3.01.03-5.76-1.45-5.81-3.13-.06-1.83,2.35-3.32,5.41-3.36,3.05-.04,5.47,1.37,5.57,3.25Z"/>
  <path d="M178.69,31.22c2.83-.02,5.26,1.32,5.06,2.95-.23,1.84-1.91,2.86-4.73,2.92-2.92.07-5.45-1.34-5.52-3.01-.07-1.6,2.17-2.84,5.19-2.86Z"/>
  <path d="M220.82,65.45c-4.22.01-6.61-1.27-6.68-2.85-.07-1.56,2.45-3.3,4.82-3.31,2.16-.01,5.9,2.21,5.19,3.4-.73,1.22-2.54,2.15-3.33,2.76Z"/>
  <path d="M307.61,63.85c.26-1.71,1.75-2.8,4.42-2.72,2.54.07,4.47,1.14,4.42,2.87-.05,1.7-1.93,2.8-4.52,2.8-2.63,0-4.16-1.06-4.32-2.94Z"/>
  <path d="M358.1,36.33c-2.12-1.61-4.24-2.49-4.44-3.54-.31-1.64,1.71-2.75,4.36-2.72,2.61.03,4.16,1.22,3.79,2.79-.24,1.01-1.93,1.88-3.71,3.48Z"/>
  <path d="M349.34,96.61c-3.62-.55-7.34-.89-10.83-1.68-16.81-3.83-15.24-15.2-6.5-20.77,9.23-5.88,20.61-8.22,33.25-6.93,11.48,1.16,17.69,8.31,14.17,15.6-4.1,8.49-15.57,13.63-30.1,13.79ZM338.32,80.2c2.09,1.14,3.55,2.31,5.43,2.91,9.26,2.95,18.31.37,25-3.37,2.14-1.2,2.56-3.04.57-4.5-1.64-1.2-3.67-2.46-5.9-2.95-8.96-1.96-22.18,1.45-27,6.74-.52.57-.69,1.29-1.03,1.94l.72.24c.94-.43,1.88-.86,2.21-1.01Z"/>
  <path d="M433.79,76.79c8.56.11,16.94,2.6,21.72,9.1,5.55,7.55-.46,16.97-12.43,20.21-11.1,3-21.48,2.5-31.46-2.24-7.27-3.45-8.26-14.82-3.98-18.79,5.96-5.53,13.26-8.24,26.14-8.27ZM428.61,100.63c6.91.04,11.47-1.32,15.61-3.41,5.23-2.64,6.3-6.5,2.82-10.17-6.53-6.9-23.61-6.94-31.56-.09-3.68,3.17-3.46,6.9.72,9.79,3.79,2.62,8.59,3.76,12.4,3.87Z"/>
  <path d="M406.99,47.48c13.22-.03,20.43,3.31,22.38,8.96,2.02,5.86-2.28,11.48-11.08,14.39-6.89,2.28-14.04,3.34-21.72,1.95-14.1-2.55-18.34-12.01-8.18-18.99,5.78-3.97,13.07-6.22,18.6-6.31ZM402.51,66.74c5.73-.36,10.9-1.64,15.06-4.05,5.44-3.15,4.36-7.87-2.2-9.57-7.77-2.02-20.34,1.4-23.84,6.48-1.5,2.17-.73,4.23,2.54,5.29,2.64.85,5.62,1.25,8.44,1.85Z"/>
  <path d="M457.31,117.76c-3.18-.05-5.78-1.52-5.65-3.19.13-1.7,2.65-3.14,5.44-3.11,2.79.03,5.64,1.69,5.69,3.32.05,1.61-2.57,3.03-5.48,2.99Z"/>
  <path d="M394.94,93.77c.04,1.7-2.28,3.4-4.7,3.22-2.59-.18-5.07-.76-5.51-2.78-.35-1.59,2.35-3.27,5.06-3.36,2.77-.08,5.11,1.24,5.15,2.91Z"/>
  <path d="M449.53,67.7c2.72,0,5.14,1.44,4.91,3.06-.26,1.87-2.22,2.86-4.81,2.91-2.65.05-4.6-.93-4.84-2.82-.22-1.73,2.05-3.15,4.74-3.15Z"/>
  <path d="M511.8,86.95c-5.04.78-9.69,1.49-14.42,2.22,2.29-4.64,8.53-6.73,14.42-2.22Z"/>
  <path d="M27.59,83.23c4.08.29,7.67,2.14,8.02,4.52.05.35-1.33,1.19-1.89,1.13-3.56-.38-7.12-.84-10.58-1.51-2.55-.49-2.34-1.84-.68-2.72,1.39-.74,3.39-.97,5.13-1.42Z"/>
  <path d="M109.05,88.33c-7.64-.17-14.7-1.74-20.33-5.56-8.14-5.52-6.73-17.57,2.85-22.27,8.96-4.39,18.89-5.51,29.46-2.75,10.44,2.72,16.04,8.8,14.79,15.86-1.32,7.43-9.91,13.39-20.72,14.34-1.92.17-3.85.24-6.05.38ZM108.68,81.09c6.55-.35,11.02-1.43,14.72-3.67,6.02-3.64,5.64-9.59-.76-12.97-6.64-3.5-18.29-3.66-25.14-.33-8.15,3.96-7.52,11.57,1.43,14.64,3.46,1.19,7.39,1.78,9.76,2.33Z"/>
  <path d="M152.73,63.55c-5.1.03-8.01-1.61-8-4.49,0-2.7,3.22-4.49,8.13-4.53,4.4-.03,7.54,1.86,7.65,4.62.11,2.65-2.94,4.38-7.78,4.4Z"/>
  <path d="M131.64,51.53c-2.73,0-5.17-1.69-5.18-3.6,0-1.92,2.28-3.37,5.39-3.42,2.95-.05,5.93,1.63,6.05,3.4.11,1.63-3.32,3.62-6.26,3.62Z"/>
  <path d="M83.09,95.19c0,1.79-2.94,3.67-5.7,3.66-2.83,0-6.03-1.92-5.91-3.53.12-1.74,3.06-3.26,6.23-3.22,3.08.03,5.39,1.36,5.39,3.1Z"/>
  <path d="M74.54,84.76c-1.5.91-2.43,1.47-3.36,2.03-.93-.83-2.36-1.59-2.61-2.5-.15-.55,1.51-1.33,2.36-2,1.04.71,2.08,1.42,3.62,2.47Z"/>
  <path d="M142.65,92.33c-1.88.72-3.02,1.5-3.85,1.38-1.13-.17-2.02-1.03-3.01-1.6,1.07-.51,2.07-1.33,3.23-1.43.83-.08,1.86.8,3.64,1.65Z"/>
  <path d="M162.89,128.72c-7.8-6.52-22.19-8.76-33.76-5.32-6.59,1.96-11.76,4.85-13.48,9.67-2.07,5.79.1,11.22,3.83,16.46.04.05.38,0,.6,0-.48-.8-.96-1.59-1.74-2.88,3.13,1.45,5.45,2.58,7.85,3.63,11.84,5.16,37.04,3.17,40.53-9.81,1.17-4.34.33-8.27-3.84-11.76ZM156.49,140.6c-6.76,6.49-25.52,5.91-31.44-.97-3.69-4.29-.13-9.79,7.73-11.68,2.23-.54,4.67-.68,7.02-1.01,6.18.14,11.32,1.46,14.68,3.73.17.07.34.16.47.3.01.02.03.03.04.05,1.1.82,1.98,1.74,2.61,2.77,1.48,2.41,1.12,4.68-1.1,6.81Z"/>
  <path d="M164.15,119.19c-2.81.05-6.02-1.68-6.16-3.32-.17-1.92,2.29-3.45,5.62-3.5,3.08-.04,5.77,1.59,5.74,3.47-.03,1.65-2.59,3.31-5.19,3.35Z"/>
  <path d="M90.42,130.57c-1.44.05-2.72.48-3.64,1.12-.27.61-.7,1.18-1.3,1.67-.06.2-.09.39-.09.6,0,1.81,2.52,3.15,5.76,3.07,2.69-.07,4.93-1.52,4.87-3.17-.06-1.74-2.84-3.38-5.6-3.28Z"/>
  <path d="M181.8,139.73c-3.19.02-6.22-1.51-5.91-2.87.42-1.86,2.55-2.75,5.12-2.78,2.52-.03,4.57.88,4.55,2.72-.02,1.71-1.62,2.76-3.77,2.94Z"/>
  <path d="M403.44,133.27c-.05-.22-.08-.45-.11-.67-1.6-2.79-4.66-5.13-8.86-6.99-9.47-4.19-23.9-3.94-33.14.51-5.83,2.81-9.02,6.57-9.01,12.85.54,1.5,1.25,4.43,2.72,7.19.78,1.47,2.47,3.04,4.42,3.86,10,4.21,20.54,5.58,31.88,2.14,8.88-2.69,12.4-7.66,13.17-13.57.15-1.17.09-2.29-.15-3.36-.44-.59-.77-1.23-.93-1.96ZM392.93,142.56c-3.85,2.51-8.7,3.83-15.62,3.92-4.02-.04-8.82-.95-12.72-3.37-4.82-2.99-5.22-7.41-1.08-10.78,8.43-6.88,25.73-5.85,31.53,1.87,2.15,2.87,1.34,6.11-2.11,8.36Z"/>
  <path d="M427.14,144.58c-2.72.07-5.44-1.61-5.53-3.4-.1-1.93,1.86-3.29,4.89-3.41,3.02-.11,5.89,1.29,6.1,2.98.21,1.7-2.73,3.76-5.46,3.82Z"/>
  <path d="M424.43,130.94c.13-.26.22-.53.23-.81.06-1.75-2.28-3.31-5.01-3.35-2.7-.04-5.58,1.73-5.47,3.37.1,1.5,2.99,3.12,5.56,3.11,1.23,0,2.4-.35,3.29-.89.43-.53.9-1,1.41-1.44Z"/>
  <path d="M359.21,119.65c-2.23-.02-4.09-.91-4.62-2.7-.38-1.26,2.75-2.98,5.22-3.05,2.6-.07,5,1.23,5.06,2.74.06,1.65-2.15,2.95-5.66,3.01Z"/>
  <path d="M237.27,117.15c-.02,1.82-3.56,4.36-5.9,3.65-2.24-.68-4.31-2.46-5.16-4.06-.79-1.49,2.21-3.03,4.79-2.98,3.75.06,6.29,1.44,6.27,3.39Z"/>
  <path d="M218.85,106.55c1.78.65,4.09,1.05,5.14,2.04.67.63,0,2.58-1.05,3.14-1.44.76-3.88,1.14-5.76.99-2.21-.19-4.95-.74-4.93-2.8.02-1.46,3.36-2.91,6.59-3.36Z"/>
  <path d="M207.07,120.66c-3.23-.04-5.97-1.48-5.95-3.11.03-1.65,3.19-3.61,5.82-3.07,2.16.44,4.44,1.57,5.62,2.83.97,1.03-3.15,3.38-5.49,3.35Z"/>
  <path d="M223.61,121.7c.13,1.95-2.09,1.88-3.98,1.92-3.2.07-6.83-1.72-6.61-3.28.23-1.63,1.81-2.26,4.26-2.23,3.84.04,6.3,1.37,6.32,3.58Z"/>
  <path d="M310.54,106.1c3.79,0,6.61,1.25,6.5,2.87-.12,1.66-3.32,3.53-5.98,3.49-3.37-.04-6.63-1.71-6.55-3.35.08-1.63,2.84-3.01,6.03-3Z"/>
  <path d="M321.1,113.37c4.57,0,7.59,1.59,7.59,3.27,0,1.72-2.75,3.84-5.03,3.88-2.37.04-7.03-2.93-6.21-4.31.75-1.28,2.82-2.21,3.66-2.83Z"/>
  <path d="M298.15,120.41c-3.1-.05-5.76-1.59-5.69-3.28.07-1.65,3-3.56,5.49-3.58,2.48-.02,5.69,2.01,5.53,3.5-.15,1.43-3.28,3.4-5.34,3.37Z"/>
  <path d="M311.29,123.43c-3.69,0-5.63-1.03-5.59-3.01.04-1.91,1.33-2.92,4.43-2.82,3.24.1,5.58,1.59,5.63,3.76.04,1.63-.93,2.08-4.47,2.07Z"/>
  <path d="M181.82,82.8c-4.98-.7-9.08-1.45-12.09-3.83-2.13-1.68-1.42-3.48,1.81-4.01,5.21-.85,10.11.05,14.32,2.06,1.21.58,2.3,2.68,1.7,3.21-1.32,1.16-3.76,1.75-5.75,2.58Z"/>
  <path d="M102.63,117.25c-1.79-.74-5.29-1.47-5.41-2.4-.26-1.95,2.82-2.75,5.57-3,2.13-.19,4.35-.33,6.45-.11,1,.1,2.36,1.02,2.52,1.68.16.66-.69,1.82-1.6,2.13-2.09.71-4.48,1.04-7.53,1.7Z"/>
  <path d="M243.08,149.27c3.35,1,6.61,1.65,9.32,2.85,3.64,1.61,4.01,4.05,1.65,6.5-4.73,4.92-17.77,4.8-22.25-.21-2.3-2.57-1.67-5.09,2.22-6.62,2.7-1.07,5.84-1.65,9.06-2.51ZM239.1,156.56c2.02,1.87,4.51,1.87,7.13,1.31.35-.08.4-.76.58-1.17-2.19-.25-4.38-.52-6.58-.74-.23-.02-.53.27-1.13.6Z"/>
  <path d="M303.01,156.32c2.93,1.05,6.14,1.89,8.77,3.23,2.03,1.03,1.14,2.97-1.32,2.9-3.55-.1-7.16-.8-10.51-1.65-.93-.24-1.62-1.99-1.31-2.88.21-.6,2.36-.91,4.37-1.6Z"/>
  <path d="M277.9,67.31c3.55.03,6.18,1.76,6.19,4.08,0,1.98-2.85,3.85-5.79,3.8-2.36-.04-5.77-2.41-5.86-4.06-.09-1.64,3.05-3.83,5.45-3.82Z"/>
  <path d="M265.47,79.32c-3.4.02-6.29-1.42-6.18-3.09.1-1.52,2.94-3.14,5.52-3.16,2.98-.02,6.07,1.64,6.13,3.29.06,1.64-2.36,2.95-5.47,2.97Z"/>
  <path d="M253.48,74.14c-3.19-.07-5.94-1.54-5.84-3.12.1-1.68,3.3-4.21,5.11-3.66,2.26.69,4.51,2,5.7,3.43.91,1.1-2.89,3.4-4.97,3.35Z"/>
  <path d="M264.44,62.49c3.34,0,6.49,1.47,5.66,2.68-.92,1.34-2.77,2.81-4.75,3.3-2.13.54-5.64-2.09-5.46-3.67.23-2.05,2.76-2.07,4.54-2.31Z"/>
  <path d="M321.98,43.94c-5.29-.11-8.96-.92-11.52-3.24-3.19-2.88-2.3-5.61,2.36-7.46,4.83-1.91,12.63-1.69,17.17.5,4.56,2.2,3.44,7.35-2.15,9.09-2.13.66-4.58.87-5.85,1.1ZM325.12,38.55c-3.66-1.4-5.24-1.34-7.65.21,2.96,1.65,5.01,1.63,7.65-.21Z"/>
  <path d="M220.02,31.19c2.93.78,6.16,1.4,8.99,2.46,2.99,1.13,3.48,3.18,2.49,5.25-1.29,2.7-6.49,4.77-11.55,4.75-6.07-.03-10.62-1.83-12.15-4.82-1.28-2.51-.26-4.56,3.52-5.8,2.51-.83,5.39-1.17,8.69-1.84ZM222.87,38.68c-2.85-1.55-5.07-1.53-7.56.05,2.38,1.78,4.93,1.77,7.56-.05Z"/>
  <path d="M351.58,82.65c-2.41-.66-4.16-.88-5.39-1.53-2.84-1.5-2.67-3.1.34-4.44,4.06-1.81,8.62-2.51,13.41-1.93,1.39.17,3.23,1.08,3.6,1.9.37.81-.41,2.45-1.45,2.84-3.44,1.3-7.22,2.2-10.51,3.15Z"/>
  <path d="M430.64,97.79c-2.45-.48-4.6-.74-6.54-1.32-3.26-.97-5.5-2.57-5.51-5.13,0-2.47,2.22-3.91,5.29-4.97,5.83-2.02,11.51-1.39,16.81.72,4.65,1.85,3.69,6.98-1.72,8.9-2.58.91-5.63,1.24-8.33,1.8ZM435.82,91.95c-2.2-1.37-4.71-1.37-7.21-.58-.47.15-.76,1.45-.39,1.66,1.57.93,5.95.26,7.6-1.08Z"/>
  <path d="M409.96,54.54c2.19,1.08,4.65,1.72,5.33,2.84.5.81-.94,2.58-2.27,3.35-3.58,2.08-8.03,2.95-12.74,2.2-1.5-.24-3.37-1.24-3.77-2.14-.32-.74.92-2.27,2.11-2.73,3.45-1.32,7.22-2.28,11.33-3.52Z"/>
  <path d="M110,77.87c-4.4-.23-8.28-1.2-10.88-3.69-3.11-2.98-1.96-6.11,2.78-7.95,5.52-2.13,13.49-1.51,18.18,1.43,2.75,1.72,3.34,3.65,1.59,5.86-2.45,3.08-6.56,4.31-11.66,4.35ZM105.77,71.59c-.05.23-.1.47-.15.7.84.38,1.64,1.03,2.54,1.1,1.82.13,3.71-.01,5.55-.15.18-.01.42-1.12.3-1.15-1.61-.4-3.25-.83-4.94-.97-1.05-.09-2.2.3-3.3.47Z"/>
  <path d="M149.88,132.83c-.66-.25-1.32-.49-2-.73-.14-.03-.29-.05-.43-.08-.19-.04-.35-.12-.49-.23-2.33-.79-4.76-1.54-7.3-2.4-3.53,1.41-6.83,2.38-9.42,3.88-2.21,1.29-2.25,3.27-.65,5.05,2.22,2.48,9.9,4.79,14.19,4.18,4.09-.59,7.29-2.06,9.03-4.66.77-1.15,1.06-2.42.24-3.4-1.11-.43-2.14-1.02-3.17-1.62ZM145.49,138.26c-2.21,0-4.43.06-6.63-.05-.43-.02-1.24-.81-1.1-1,.28-.4,1.13-.91,1.67-.88,2.12.13,4.22.46,6.32.71-.09.41-.17.81-.26,1.22Z"/>
  <path d="M386.8,132.59s-.03,0-.04,0c-.35.01-.66-.13-.91-.34-.2-.07-.39-.14-.61-.2-2.17-.63-4.57-.9-7.48-1.46-1.67.43-3.58.79-5.4,1.29-.17.16-.36.29-.58.35-.71.22-1.43.43-2.13.67-.23.08-.47.2-.72.28-4.02,2.2-3.93,5.82.3,8.24,4.63,2.64,12.63,2.84,17.52.44,5.66-2.77,5.52-7.03.03-9.27ZM376.51,139.34c-.59.01-1.58-.54-1.7-.93-.12-.38.51-1.16,1.05-1.27,2.64-.56,5.31-.82,8.01,1.67-3.02.24-5.18.48-7.36.53Z"/>
</svg>