<?xml version="1.0" encoding="UTF-8"?>
<svg id="Layer_2" xmlns="http://www.w3.org/2000/svg" viewBox="0 0 276 157">
  <path d="M122.25,156.63c-63.47-2.58-97.93-38.09-100.5-40.6-4.21-4.11-7.94-8.59-10.11-14.17-.12-.32-.43-.6-.72-.81-7.13-5.03-12.45-15.03-10.06-24.42,1.31-5.16,4.48-9.27,8.63-12.5,2.65-2.06,5.59-3.77,8.42-5.6.73-.47,1.11-.85.98-1.9-.49-3.77,1.93-8.11,5.14-9.43,2.33-.96,4.63-.59,6.87.36,1.04.44,2.09.86,3.06,1.42,1.03.61,1.65.16,1.74-.75.1-.94.04-2.07-.41-2.85-.9-1.57-2.06-3.01-3.22-4.42-5.08-6.2-4.51-13.33-.81-19.46,3.63-6.02,9.08-9.13,15.95-9.79,7.27-.7,14.37,3.96,16.48,10.12.32.94.85,1.81,1.43,3.02,6.21-2.51,12.27-4.94,18.32-7.4,3.23-1.31,6.43-2.67,9.66-4,1.07-.44,2.19-.98,2.77.7,3.3-3.92,6.7-3.59,11.94,1q4.05-1.83,10.1-.04c-.27-1.11-.46-2.05-.74-2.97-1.59-5.32.61-9.71,5.64-10.91,3.13-.74,5.96.09,8.3,2.31,1.05,1,2,2.1,3.01,3.14.91.94,1.84.98,2.81.06,1.09-1.03,2.13-2.13,3.31-3.05,3.27-2.56,7.51-2.69,10.6-.4,3.07,2.28,4.03,5.97,2.59,9.95-.32.89-.66,1.76-1.04,2.77,1.42-.59,2.59-1.2,3.84-1.57,2.38-.72,4.66-.3,6.85.82.58.3,1.24.44,1.57.55.22.71.33,1.4.64,1.97.73,1.3,1.56,2.54,2.38,3.85,1.26-2.65,3.03-5.29,5.92-6.31,3-1.06,5.76.43,8.15,2.58,2.86-2.38,5.92-4.29,9.65-2.22,3.36,1.86,4.73,5.12,5.28,8.87.3-.11.51-.13.66-.24,3.03-2.23,6.29-2.44,9.76-1.16,2.63.97,3.65.73,4.57-1.83,4.17-11.58,18.57-11.5,26.26-6.22,4.44,3.05,7.48,7.06,8.49,12.4,1.19,6.28-.93,11.2-6.76,15.31-.65.46-1.38.83-1.99,1.35-.95.82-.87,1.92-.14,2.72.33.36,1.33.33,1.95.17,2.32-.6,4.57-1.65,6.91-1.93,5-.61,9.23,4.07,8.38,9.08-.2,1.16.09,1.7,1.07,2.3,3.44,2.07,6.98,4.04,10.15,6.47,5.3,4.06,9.08,9.24,10.08,16.07.6,4.1-.04,8-1.93,11.7-2.04,4.01-4.54,7.65-8.25,10.33-.25.18-.46.46-.59.73-3.43,7.5-9.11,13.19-15.09,18.62-.95.86-38.39,33.29-106.37,36.19M193.71,51.35c-3.02,2.74-6.03,5.48-9.05,8.22-1.74,1.59-4.23,2.87-5.05,4.84-1.09,2.62-3.48,2.99-5.13,4.52-.19.18-.29.46-.47.65-.29.3-.62.57-.93.84-1.25,1.08-2.59,2.07-3.72,3.26-.42.45-.57,1.39-.46,2.04.21,1.18.7,2.31,1.22,3.89,5.23-4.8,10.26-9.42,15.51-14.24-.65-.17-.95-.22-1.23-.32-1.98-.69-2.99-2.31-1.02-3.9.52-.42.84-1.08,1.25-1.62,1.86.99,1.71-1.71,3.12-1.69.76,2.02,1.44,4-.73,5.77.52-.16.86-.36,1.13-.63,4.26-4.14,8.54-8.26,12.73-12.47.69-.69,1.3-1.76,1.36-2.7.12-1.67-.2-3.36-.34-5.05-2.7,2.79-5.4,5.58-8.09,8.37-.04.06-.08.13-.12.19ZM20.42,60.89c-3.6,2.65-7.41,4.88-10.5,7.85-5.46,5.24-7.04,11.68-4.36,18.98,1.77,4.83,5.07,8.42,9.04,11.47,8.08,6.2,17.35,10.04,26.93,13.08,11.85,3.77,23.94,6.69,36.23,8.71,9.21,1.52,18.47,2.67,27.8,3.1,6.32.29,12.65.68,18.97.87,6.7.19,13.42.41,20.12.22,10.13-.28,20.28-.59,30.37-1.47,10.4-.91,20.8-2.15,31.07-3.94,8.42-1.47,16.71-3.81,24.98-6.07,10.18-2.78,19.91-6.75,28.84-12.46,4.54-2.9,8.59-6.25,10.54-11.55,2.3-6.24,2.37-12.2-1.58-17.93-3.91-5.65-9.47-9.07-15.48-11.92-.98-.46-3.02,1.09-2.85,2.18.32,2.09.77,4.16,1.17,6.24,5.73.03,9.94,6.93,7.37,11.52-.31.56-.19,1.35-.31,2.03-.19,1.03-.15,2.22-.67,3.05-1.13,1.8-2.37,3.6-3.9,5.07-4.58,4.41-10.36,6.83-16.15,9.11-15.27,6.01-31.17,9.61-47.41,11.47-13.26,1.52-26.59,2.49-39.91,3.41-6.74.47-13.53.58-20.28.33-8.84-.32-17.66-1.04-26.48-1.78-7.53-.64-15.08-1.29-22.55-2.41-11.36-1.7-22.57-4.13-33.47-7.87-7.52-2.57-15.1-5.01-21.82-9.36-2.45-1.58-4.76-3.51-6.71-5.67-1.16-1.28-1.81-3.28-2.06-5.04-.17-1.15-.33-1.95-1.21-2.7-2.33-1.99-2.68-4.6-1.87-7.34.78-2.62,2.62-4.29,5.39-4.68,1.61-.22,3.25-.23,5.3-.37-1.5-2.02-2.85-3.83-4.55-6.11ZM20.46,108.27c.39.64.62,1.2,1,1.61,1.81,1.97,3.6,3.97,5.52,5.84,6.81,6.62,14.73,11.66,23.41,15.37,12.13,5.19,24.81,8.66,37.88,10.45,10.88,1.49,21.79,2.89,32.73,3.68,13.49.97,27.02.6,40.52-.44,11.5-.89,22.91-2.36,34.21-4.65,9.2-1.86,18.28-4.21,27.04-7.69,11.31-4.5,21.6-10.52,29.91-19.56,1.5-1.63,2.84-3.39,4.25-5.1-.12-.13-.24-.27-.36-.4-1.13.74-2.19,1.65-3.42,2.18-4.47,1.95-8.9,4.05-13.51,5.6-13.5,4.55-27.36,7.72-41.43,9.88-16.47,2.53-33.09,3.4-49.72,3.72-11.26.22-22.54-.21-33.81-.45-18.68-.39-37.09-2.84-55.27-7.15-9.35-2.21-18.7-4.39-27.61-8.07-3.7-1.53-7.37-3.14-11.34-4.83ZM202.88,66.55c.96-2.29,1.89-4.43,2.76-6.6.21-.53.25-1.14.28-1.71.06-.96-.16-1.98.11-2.86,1.05-3.44,1.05-7.15,3.3-10.28,3.56-4.97,6.87-10.12,10.26-15.21,1.69-2.54,3.32-5.13,5-7.68.55-.84,1.47-1.44,2.27-.69.42.4.22,1.51.21,2.3,0,.28-.28.57-.45.84-1.78,2.87-3.58,5.73-5.35,8.61-.47.77-.85,1.6-1.28,2.4.77.1,1.2-.07,1.64-.22,2.78-.96,5.55-1.97,8.36-2.85,1.09-.34,2.55-.82,3.03.74.5,1.65-1.06,2-2.18,2.43-3.95,1.52-7.96,2.91-11.86,4.54-1.16.48-2.43,1.37-3.03,2.42-2.75,4.83-5.29,9.78-7.98,14.84,1.72-.09,3.12-.31,4.47-.17,1.08.11,1.49-.27,1.9-1.14,1.51-3.24,3.96-5.45,7.42-6.41,3.11-.86,6.21.38,7.57,3.31.75,1.63.93,3.53,1.37,5.33,5.37-1.14,8.08-.44,9.78,2.73,2,3.73,1.39,7.32-.83,10.9,2.64-.85,5.25-1.49,7.17-3.44,1.08-1.1.83-2.37-.39-3.66-.37.21-.72.51-1.12.61-.78.19-1.58.27-2.37.4-.07-.97-.21-1.94-.19-2.91.02-.88.3-1.76.32-2.64.03-1.08.05-2.22,1.36-2.35.61-.06,1.29.59,2.17,1.04.7-.54,1.78-1.25,2.73-2.12,1.68-1.53,2.05-4.18.97-6.06-1.1-1.93-2.67-2.41-5.31-1.57-1.89.6-3.74,1.33-5.63,1.91-1.82.56-3.77-.05-4.8-1.39-1.63-2.13-1.63-7.73,1.36-9.41,1.3-.73,2.47-1.71,3.63-2.67,2.45-2.01,3.73-4.7,3.37-7.8-.72-6.1-3.87-10.62-9.62-13.05-6.15-2.6-15.31-2.46-18.77,6.47-.1.25-.25.47-.39.7-.96,1.68-2.37,2.97-4.28,3.06-2.04.1-4.16-.1-6.15-.55-3.22-.73-6.5,1.63-6.54,5.01.19.06.39.14.6.18,4.91.93,7.71,3.94,8.28,8.89.21,1.81.32,3.64.71,5.42.53,2.45-.15,4.48-1.78,6.22-1.64,1.76-3.35,3.48-5.11,5.12-8.67,8.09-17.37,16.15-26.08,24.2-2.54,2.35-5.49,3.87-8.95,4.44-5.99.98-11.48-.53-16.81-3.08-.76-.37-1.56-.66-2.35-.99.84,1.26,1.94,2.15,2.79,3.23.47.61.81,1.59.71,2.33-.23,1.8-.72,3.56-1.17,5.32-.62,2.36-1.86,4.31-3.93,5.69-.86.58-1.64,1.28-2.51,1.96,1.47.95,2.77,1.79,4.08,2.63.18.12.37.22.56.32,1.87.97,3.44.25,3.83-1.77.11-.58.11-1.18.26-1.75.53-2.01.81-4.15,1.7-5.99,2.5-5.14,8.63-5.67,13.2-4.61,3.6.83,5.76,3.32,7.3,6.5.31.64.72,1.22,1.09,1.83l.51-.17c-.3-4.63.66-8.9,4.28-11.96,3.59-3.04,7.82-3.97,12.7-2.33-1.66-5.79-5.94-4.83-10.28-4.4.57-1.32.75-2.85,1.58-3.42,2.34-1.59,4.87-.78,7.12.33,1.87-7.3,7.32-9.01,13.41-9.31ZM90.03,53.36c-2.92.51-5.85,1.44-8.79,1.46-14.12.08-24.41-7.76-28.9-21.43-.82-2.5-.73-2.5,1.71-3.54,2.55-1.08,5.08-2.21,7.7-3.35-.88-1.87-1.53-3.53-2.39-5.06-1.57-2.77-3.86-4.7-6.98-5.57-10.36-2.87-20.65,5.78-20.16,16.48.13,2.76,1.44,4.89,3.34,6.74,1.86,1.82,3.54,3.77,4.09,6.42.52,2.5-.07,4.74-2.02,6.42-1.87,1.6-3.94,1.38-6.01.3-.81-.42-1.63-.83-2.46-1.19-2.82-1.2-5.29.23-5.79,3.28-.37,2.21.28,4.11,1.53,5.9,1.16,1.67,2.38,3.33,3.3,5.14,1.63,3.18-.32,6.08-3.83,5.92-1.02-.04-2.04-.1-3.06-.12-1.5-.04-2.58.67-3.22,1.99-.65,1.33-.04,2.59.85,3.36,1.8,1.54,3.83,2.81,5.77,4.19.14-.17.27-.33.41-.5-.67-.44-1.34-.88-2.01-1.32.14-.14.28-.28.42-.42,2.17.7,3.3,2.64,4.75,4.19.15.16.09.51.13.77.29,2,.56,3.99.89,5.98.04.27.31.6.57.73,2.71,1.46,5.44,2.88,8.17,4.31.07-.12.15-.23.22-.35-.16-.19-.3-.4-.48-.57-4.65-4.44-7.6-9.82-8.76-16.13-.76-4.1-.61-8.34,1.33-11.96,2.68-4.99,6.73-8.87,12.14-11.05,1.28-.51,2.57-1,3.85-1.49-.04-.1-.07-.2-.11-.31-1.89.43-3.79.87-6.07,1.39,2.67-4.54,5.69-5.01,8.41-3.2,1.91,1.27,3.99.81,6.18.58-.13-.35-.19-.61-.32-.82-3-4.93-6.22-9.67-11.15-12.93-1.48-.98-2.98-1.92-4.37-3.01-.5-.39-.69-1.15-1.03-1.74.73-.31,1.45-.82,2.19-.86.62-.04,1.32.4,1.91.75,1.83,1.1,3.62,2.26,5.7,3.57-.42-1.16-.68-2.14-1.12-3.02-.91-1.82-1.92-3.59-2.9-5.39-.18-.33-.36-.66-.58-.97-.67-.93-.72-1.86.26-2.52,1.07-.72,1.88-.02,2.4.85,1.52,2.53,3.23,4.99,4.38,7.68,2.7,6.33,5.81,12.42,9.44,18.26.36.57,1.15.95,1.81,1.25,1.77.81,3.76,1.27,5.34,2.34,2.97,2.01,4.58,5.19,6.18,8.3.68,1.31,1.38,2.62,2.26,4.3.28-1.5.46-2.55.67-3.59.7-3.52,4.13-6.75,8.58-4.9,1.88.78,3.73,1.63,5.62,2.4.65.26,1.36.36,2.3.6-.83-3.12-1.56-5.89-2.28-8.56ZM160.21,73.82c3.42.34,5.85-1.58,8.11-3.67,5.09-4.69,10.12-9.44,15.11-14.23,5.07-4.87,10.09-9.78,15.08-14.74,2.13-2.11,1.62-3.42-1.06-4.98-.46-.27-.97-.5-1.49-.6-3.89-.77-7.77-1.62-11.68-2.21-2.17-.33-4.18.29-5.93,1.86-3.58,3.24-7.33,6.3-10.93,9.51-6.85,6.11-13.69,12.23-20.44,18.43-3.25,2.99-3.55,5.27,1.42,7.81,3.65,1.87,7.72,2.54,11.8,2.81ZM226.49,98.32c.04.14.09.28.13.42,4.06-1.47,8.16-2.88,12.19-4.45,2.98-1.16,3.29-2.21,1.78-5.1-.37-.7-.86-1.37-1.42-1.93-1.36-1.37-2.81-2.64-4.21-3.98-1.2-1.15-2.56-1.65-4.25-1.47-1.24.13-2.5.03-4.06.03.41-.64.57-.97.8-1.23,2.84-3.17,8.13-3.13,11.38.12.91.91,1.68,1.95,2.61,2.85.31.3.89.46,1.34.44.95-.04,1.9-.18,2.83-.39.6-.14,1.16-.47,1.74-.72,0-.2,0-.4,0-.6-1.42-.59-2.84-1.19-4.29-1.79.51-.15,1.1-.36,1.7-.48,3.15-.66,6.29-1.31,9.44-1.94,1.32-.26,1.72-1.04,1.57-2.32-.34-2.9-3.07-5-5.86-4.1-1.68.54-3.24,1.61-4.68,2.68-1.73,1.28-3.48,2.33-5.68,2.36-3.34.04-5.47-2.89-4.33-6,.46-1.25,1.16-2.42,1.69-3.65.62-1.44.85-2.92-.17-4.27-1.39-1.83-2.89-2.04-5.05-.55-1.41.97-2.63,2.2-3.99,3.24-.86.67-1.83,1.25-2.94.49-1.15-.8-1.02-1.96-.64-3.05.4-1.16.9-2.3,1.49-3.37,1.11-2.04,1.01-4.36-.35-5.48-1.2-.99-3.31-.81-4.93.9-1.45,1.53-2.57,3.39-3.68,5.21-1.48,2.42-2.06,2.76-4.67,1.75-1.15-.44-1.99-.3-2.66.67-.97,1.41-1.91,2.85-2.78,4.33-.14.24-.01.89.22,1.07,3.57,2.78,5.26,6.18,3.46,10.82,3.84.36,5.68,2.57,6.28,6.01,4.8-3.33,10.07-2.98,12.82.74,3.25,4.4,2.25,8.94-2.81,12.78ZM54.52,55.39c-7.44.39-13.82,2.76-18.7,8.34-4.09,4.67-4.85,12.21-1.8,17.31,2.28,3.82,5.83,5.68,10.09,6.79,9.95,2.58,23.14-3.6,25.5-15.84,1.45-7.54-2.6-14.82-10.46-16.07-1.58-.25-3.19-.36-4.63-.52ZM93.14,17.54c-2.26,1-4.16,1.87-6.08,2.67-7.08,2.92-14.17,5.85-21.28,8.71-2.14.86-2.27.88-1.53,3.1,2.11,6.39,6.91,9.5,13.18,10.89,5.17,1.14,9.29-.97,12.89-4.24,1.16-1.06,1.55-2.97,2.25-4.51.08-.17-.16-.48-.3-.84-2.38,3.85-3.21,4.32-5.43,3.19-1.3-.66-2.58-3.41-1.9-4.55.61-1.02,1.46-2.29,2.46-2.58,1.16-.34,2.59.27,4.11.49.24-.53.59-1.31,1.15-2.56.77,2.43,1.1,4.63,2.13,6.42,1.01,1.75.49,3.06-.27,4.41-.65,1.15-1.49,2.26-2.47,3.14-8.43,7.51-19.96,5.55-26.85-2.15-1.99-2.23-3.35-5.01-5.03-7.59-1.02.51-2.33,1.17-3.64,1.83,2.26,6.84,6.43,11.85,12.85,14.87,6.39,3.01,12.94,3.62,19.36.32,2.82-1.45,5.27-3.64,7.42-5.16.26-1.87.21-3.39.71-4.72.87-2.3,1.14-4.55.55-6.92-.31-1.25-.6-2.5-.98-3.73-1.07-3.47-2.18-6.92-3.31-10.48ZM128.59,92.81c4.91.05,9.26-1.53,13.32-4.16,2.54-1.65,2.6-1.85.44-3.91-6-5.75-11.99-11.49-17.98-17.25-3.59-3.46-7.17-6.93-10.73-10.42-.89-.87-1.65-.99-2.58-.08-1.45,1.42-3.1,2.67-4.41,4.2-4.4,5.12-5.05,12.41-1.77,18.32,5.17,9.32,13.62,12.8,23.72,13.3ZM147.01,28.36c0-1.65-.55-3.58.12-4.85,1.22-2.3,1.23-4.52,1.25-6.96.01-1.63.98-3.25,1.48-4.89.79-2.58.44-3.82-1.44-5.25-1.69-1.29-4-1.36-5.85-.03-.9.65-1.69,1.49-2.45,2.32-3.27,3.59-6.11,3.57-9.31-.04-.99-1.11-2.04-2.23-3.26-3.06-1.67-1.14-3.57-1.24-5.28-.02-1.63,1.17-2.19,2.87-1.82,4.83.27,1.42.63,2.82.97,4.22.37,1.54,0,2.91-1.14,3.97-1.18,1.1-2.64,1.14-4.08.61-.85-.31-1.63-.81-2.42-1.26-1.72-.97-2.77-.82-4.29.67-1.48,1.46-1.64,2.49-.64,4.24.45.79.88,1.6,1.35,2.38,1.65,2.74,2.41,2.88,4.96.96,4.29-3.22,10.22-1.83,12.54,2.99.53,1.09.86,2.32,1.07,3.52.37,2.08,1.6,3.16,4.02,3.61-.15-1.21-.11-2.32-.43-3.32-1.82-5.66-3.43-11.41-6.46-16.6-.63-1.07-.3-2.09.62-2.69,1.04-.69,1.79.09,2.39.93.15.22.3.45.41.69,1.43,3.06,2.86,6.11,4.28,9.18.85,1.84,1.67,3.7,2.52,5.57,4.38-3.38,6.71-3.7,10.91-1.73ZM177.48,106.43l.23-.52c.41-.12.81-.26,1.22-.37,1.41-.36,2.33-1.04,2.76-2.62.84-3.06,3.02-5.33,5.74-6.65,2.21-1.07,2.82-2.75,3.31-4.73.91-3.68-1.69-6.2-5.39-5.29-4.57,1.12-7.27,4.71-6.91,9.31.03.42.55.8,1.04,1.46-.97,1.03-1.99,2.35-3.24,3.4-2.16,1.81-4.48,1.37-6.03-1-.73-1.12-1.37-2.31-2.04-3.47-1.31-2.27-3.25-3.35-5.89-3.07-.8.08-1.6.18-2.4.3-2.69.39-4.35,1.96-5.05,4.54-.35,1.29-.6,2.61-.84,3.93-1.04,5.84-6.75,8.43-11.64,4.49-1.11-.9-2.42-1.61-3.73-2.21-1.59-.72-2.96.02-4.04,1.18-1.17,1.26-.96,2.83-.44,4.25.53,1.46,1.95.87,2.97.84,5.09-.17,10.17-.45,15.26-.7,1.55-.08,3.11-.18,4.66-.29,7.51-.53,15.02-1.06,22.65-1.6-.87-.47-1.54-.83-2.21-1.2ZM116.19,54.02c8.52,8.31,17.7,17.26,26.69,26.02-.77-3.75-1.55-7.55-2.33-11.35-.42-2.08.02-3.92,1.45-5.53.99-1.11,1.93-2.25,2.84-3.32-6.45-1.71-12.06-4.99-17.17-9.15-2.31-1.88-2.32-3.64-.42-5.93,1.12-1.35,2.21-2.73,3.41-4.22-.74-.46-1.25-.86-1.82-1.12-2.2-1.01-3.31-2.79-3.75-5.09-.18-.95-.38-1.9-.7-2.8-.63-1.77-1.77-3.17-3.72-3.37-2.03-.21-3.17,1.3-4.24,2.74-.51.68-.4,1.19.37,1.71,1.87,1.25,3.69,2.57,5.48,3.93,2.09,1.58,2.41,2.24,1.28,4.63-1.56,3.28-3.42,6.42-5.2,9.6-.57,1.02-1.3,1.96-2.18,3.28ZM107.05,55.1c-2.38-1.22-4.6-2.46-6.91-3.49-1.5-.67-2.99-.22-4.1.99-1.11,1.21-1.31,2.67-.73,4.2.38,1,.87,1.97,1.18,2.99.78,2.53-.63,5.14-3.19,5.73-2.89.67-5.74.68-8.31-1.21-.64-.47-1.36-.86-2.08-1.21-1.88-.92-2.89-.54-3.27,1.51-.74,4.03-2.54,7.84-2.28,12.09.09,1.46-.22,3.03-.7,4.42-.81,2.31-1.91,4.52-2.88,6.76.45.07,1.19.15,1.91.31,1.37.31,1.79-.28,1.84-1.59.05-1.54.15-3.12.5-4.61.78-3.33,3.46-4.62,6.4-5.38,2.64-.68,4.96,0,6.82,2.12,1.81,2.08,2.97,4.57,2.7,7.2-.31,3,.91,4.12,3.53,4.71,1.3.3,2.48,1.1,3.83,1.73,0-.35.02-.41,0-.44-.11-.18-.22-.36-.35-.53-3.17-4.06-4.4-8.64-3.6-13.73.29-1.85.69-3.68,1.04-5.52.77-3.97,1.84-7.83,4.32-11.13,1.35-1.8,2.66-3.63,4.33-5.91ZM65.59,140.93c.51.34,1.03.83,1.65,1.08,2.77,1.14,5.49,2.55,8.38,3.26,6.22,1.53,12.52,2.8,18.82,4,10.5,2,21.14,3.01,31.8,3.07,12.54.08,25.11.06,37.61-.76,9.11-.6,18.15-2.39,27.17-3.96,5.36-.94,10.78-1.94,15.71-4.49,1.23-.64,2.36-1.45,3.37-2.08-48.15,11.64-96.28,11.84-144.52-.12ZM88.06,105.14c1.18-3.81,2.34-7.36,3.34-10.96.21-.76-.18-1.7-.37-2.54-.3-1.27-.81-2.51-1-3.8-.24-1.58-.07-3.22-.38-4.78-.37-1.85-1.97-3.08-3.62-3.15-1.56-.07-3.14.99-3.81,2.7-.31.78-.44,1.65-.51,2.5-.09,1.12,0,2.25-.05,3.38-.13,2.7-1.99,4.36-4.67,4.02-.98-.12-1.94-.58-2.87-.95-3.01-1.2-4.6-.51-5.71,2.57-.27.75-.51,1.54-.6,2.33-.24,2.16-.4,4.32-.6,6.6.63.16,1.33.25,1.95.51,1.47.6,2.63.6,3.3-1.15.18-.45.7-.8,1.12-1.13,3.94-3.09,9.83-2.34,12.87,1.63.52.68,1.01,1.37,1.63,2.22ZM193.56,30.34c-.44-2.56-.78-4.94-1.28-7.28-.21-.98-.59-1.97-1.13-2.81-1.29-2.04-3.23-2.39-5.25-1.07-2.14,1.39-2.1,1.38-1.58,3.92.27,1.31.35,2.65.5,3.98.11.94-.29,1.36-1.27,1.38-1.89.04-2.77-.6-3.1-2.5-.23-1.32-.29-2.67-.59-3.97-.39-1.68-1.42-2.85-3.2-3.23-1.75-.37-2.85.58-3.76,1.88-.34.48-.55,1.05-.9,1.52-.88,1.19-1.81,2.35-2.72,3.53-.39.5-.85.97-1.16,1.52-1.06,1.92-1.96,3.94-3.13,5.79-1.89,2.99-.96,5.87-.06,9,3.24-2.84,6.34-5.55,9.44-8.26,4.18-3.67,8.71-6.02,14.51-4.18,1.49.47,3.1.54,4.66.8ZM206.2,102.22c-.03-.16-.07-.33-.1-.49,1.21-.67,2.38-1.44,3.65-1.99,5.21-2.26,10.47-4.42,15.67-6.69.59-.26,1.19-.91,1.41-1.52.62-1.69.05-3.36-1.36-4.45-1.39-1.07-2.89-1.39-4.48-.42-1.19.72-2.33,1.55-3.57,2.17-1.97,1-3.43.39-4.23-1.65-.27-.7-.46-1.43-.76-2.12-.47-1.07-.89-2.3-2.38-2.26-1.6.05-2.59,1-2.99,2.48-.34,1.29-.68,2.61-.73,3.93-.23,5.74-2.2,10.44-7.46,13.35-.29.16-.51.67-.54,1.03-.06.9.09,1.51,1.36,1.25,4.12-.85,8.28-1.56,12.42-2.32-.02-.1-.04-.2-.05-.31h-5.86ZM140.72,54.03c1.72-3.25,3.19-6.21,4.85-9.06.68-1.17,1.36-2.12.7-3.56-.26-.56-.06-1.37.04-2.05.17-1.11.49-2.2.62-3.31.23-1.95-.68-3.65-2.21-4.46-1.78-.94-3.34-.54-4.7.77-.8.77-1.56,1.63-2.14,2.57-1.27,2.05-2.38,4.19-3.6,6.27-1.3,2.2-2.67,4.35-4.17,6.8,3.76,2.14,7.31,4.15,10.61,6.03ZM150.96,37.71c2.33-1.88,5.04-3.24,7.94-2.8,1.38-1.84,2.58-3.44,3.78-5.05,3.05-4.1,1.56-10.09-2.91-11.7-2.69-.96-7.15,1.13-8.67,4.05-.86,1.66-1.1,3.31-.28,5.08.63,1.36,1.15,2.77,1.65,4.18.19.53.19,1.12.28,1.69-.14.07-.28.14-.42.2-.61-.47-1.22-.93-1.71-1.32.11,1.85.23,3.77.34,5.67ZM91.46,107.28c4.15.37,8.03.73,11.92,1.02.37.03,1.01-.3,1.11-.6,1.06-3.12,2.04-6.28,3.05-9.42-4.17-1.34-8.16-2.62-12.29-3.94-1.27,4.34-2.49,8.52-3.78,12.94ZM106.33,30.29c-2.15,3.14-4.29,6.21-6.34,9.34-.17.25.14,1.13.47,1.34,3.07,2,6.2,3.93,9.09,5.74,2.11-3.65,4.07-7.05,6.06-10.5-3.07-1.96-6.04-3.86-9.27-5.92ZM40.92,90.33c.43.51.65.74.84.99,1.82,2.48,4.47,3.52,7.28,4.38,1.89.58,3.29-.52,4.86-1.09.39-.15.82-.22,1.24-.28,2.37-.33,4.72-.54,6.94-1.75,2.85-1.55,5.09-3.72,7.21-6.06,2.58-2.85,3.87-6.26,4.12-10.06.08-1.13-.12-2.28-.2-3.43-1.98,6.99-6.11,12.17-12.3,15.55-6.22,3.39-12.86,4.01-19.99,1.75ZM208.09,75.36c-.73-1.19-1.26-2.58-2.23-3.54-2.18-2.15-5.68-2.01-8.72.09-3.24,2.24-3.82,3.96-2.52,7.44,1.03,2.77,2.71,3.82,5.1,2.89,1.98-.77,3.9-1.78,5.74-2.85,1.38-.81,2.35-2.04,2.63-4.02ZM113.85,92.89c.13.38.52,1.2.42,1.27-.71.47-1.52.78-2.37,1.18,1.11.65,2.42,1.6,3.87,2.21,4.41,1.85,9.08,2.55,13.83,2.24,4.06-.26,7.91-1.4,11.27-3.81,1.54-1.11,2.52-2.63,3.02-4.74-9.93,6.39-19.89,6.32-30.05,1.65ZM164.7,76.83c-6.75,1.11-12.86-.5-18.85-3.21.44,4.09,1.41,5.35,4.99,6.51,1.32.43,2.65.92,4.01,1.1,2.85.38,5.71.63,8.58.79.72.04,1.91.07,1.8-1.26-.11-1.27-.34-2.53-.54-3.94ZM147.88,56.33c.14.1.28.2.43.3,4.11-3.59,8.23-7.16,12.3-10.79.37-.33.66-1.03.6-1.51-.27-2.13-.91-4.1-3.14-5.03-2.04-.85-3.33.51-4.72,1.57-.09.06-.16.14-.25.2-.94.65-1.22,1.36-.41,2.38.99,1.23.96,2.6.48,4.09-.86,2.71-2.24,5.07-4.18,7.13-.45.48-.74,1.1-1.1,1.66ZM106.01,25.57c-2.04-1.48-2.21-3.73-1.63-6.17.02-.1.03-.21.04-.32.19-1.97-1.35-3.84-3.31-4.02-1.77-.16-3.63,1.41-3.24,2.89,1.15,4.34,2.42,8.65,3.63,12.89,1.46-1.71,2.91-3.4,4.51-5.28ZM120.65,108.75c2.05-1.83,4.26-3.33,7.15-3.33,1.14,0,1.79-.31,1.85-1.05-4.63-.58-9.19-1.14-13.71-1.71-.16,2.1-.33,4.43-.53,6.95h10.17c.01-.15.02-.3.03-.45-1.59-.13-3.18-.26-4.97-.41ZM194.72,105.83c-.55-1.67-.84-3.22-1.54-4.55-1.19-2.27-3.95-2.49-5.33-.35-1.13,1.75-1.8,3.8-2.89,6.19,3.5-.46,6.42-.84,9.76-1.28ZM115.13,49.2c1.34-2.28,2.82-4.56,4.04-6.97.95-1.88.56-2.73-1.4-4.33-1.45,2.58-2.96,5.1-4.3,7.7-1.39,2.69-1.67,2.81,1.67,3.61ZM150.47,46.24c-.3-.42-.53-1.05-.92-1.16-.33-.1-1.04.28-1.23.64-1.37,2.54-2.67,5.12-3.96,7.71-.26.52-.44,1.12-.45,1.69,0,.32.34.76.65.95.24.15.81.14.99-.05,2.68-2.68,3.7-6.19,4.92-9.77ZM196.84,84.76c-.04.13-.08.25-.13.38,3.83,1.66,4.43,5.03,4.81,8.58.55-3.64,1.11-7.29,1.71-11.23-2.24.8-4.31,1.53-6.39,2.27ZM193.19,96.16c1.3,1.01,2.6,2.01,3.99,3.08.36-.28.81-.63,1-.78-.76-3.33-1.46-6.43-2.17-9.54-.13.01-.26.02-.4.04-.8,2.39-1.61,4.77-2.42,7.2ZM111.04,108.77c1-3.26.66-6.37-.67-9.92-1.1,3.56-2.06,6.68-3.06,9.92h3.73ZM62.96,102.35c.06-.16.11-.33.17-.49-1.52-1.15-2.96-2.42-4.57-3.42-2.09-1.3-3.67-.67-4.73,1.74,3.06.73,6.09,1.45,9.13,2.18ZM104.18,48.47c-1.78-1.22-3.33-3.37-5.63-3.06-1.73.24-3.31,1.65-4.15,3.56,3.2-2.03,6.41-1.36,9.78-.5ZM75.79,105.09c2.81.43,5.56.85,8.37,1.27-2.08-3.84-5.64-4.32-8.37-1.27ZM105.53,86.76c-1.33-1.9-2.78-3.99-4.2-6.03-.29,2.74.71,5.18,2.03,7.11.88-.44,1.59-.8,2.17-1.09ZM254.02,84.05c-1.36.66-2.72,1.32-4.08,1.99-1.17.58-1.31,1.49-.82,2.86,1.95-1.42,4.08-2.32,4.9-4.85ZM22.3,83.76c-.16.17-.32.33-.49.5,1.04.92,2.08,1.83,3.12,2.75.13-.14.26-.28.39-.42-.37-1.59-1.53-2.38-3.03-2.83Z"/>
  <path d="M193.82,51.16c.5-.31.96-.74,1.5-.88.59-.16,1.46-.3,1.84,0,.39.32.65,1.33.43,1.77-.27.54-1.07,1.08-1.68,1.13-.85.07-1.74-.31-2.86-.55.26-.5.46-.89.66-1.27.04-.06.08-.13.12-.19Z"/>
  <path d="M177.23,50.54c1.31,2.5,1.22,3.21-.75,4.33-1.75,1-3.24,2.16-4.47,3.78-.57.76-1.62,1.2-2.52,1.65-1.33.67-2.17,1.47-2.7,3.06-.53,1.6-2,2.93-3.17,4.27-.7.8-1.44.32-2.07-.31-.66-.65-.94-1.35-.18-2.07,1.24-1.17,2.41-2.47,3.81-3.41,3.31-2.24,5.57-5.53,8.52-8.12,1.14-1,2.25-2.03,3.53-3.18Z"/>
  <path d="M177.55,44.32c-.14,2.19-2.48,4.98-4.53,5.42-.34.07-.97-.09-1.07-.32-.19-.41-.3-1.18-.06-1.42,1.31-1.3,2.73-2.48,4.12-3.69.78-.68,1.59-1.32,2.36-2.02,1.17-1.08,2.24-2.28,3.51-3.23.43-.32,1.33-.02,2.02,0-.16.59-.16,1.32-.52,1.74-1.5,1.8-3.23,3.3-5.83,3.52Z"/>
  <path d="M178.49,49.39c1.38-1.24,2.49-2.59,3.9-3.4,1.32-.76,2.01.63,2.72,1.5-2.38,3.23-3.94,3.79-6.62,1.9Z"/>
  <path d="M159.16,60.21c1.43,1.96,1.42,2.03-.24,3.5-1.47,1.29-3.12,1.71-5.23,1.11,1.17-2.43,3.28-3.51,5.47-4.61Z"/>
  <path d="M171.59,51.23c-.05,1.16-2.45,3.43-3.59,3.25-.55-.09-1.2-.51-1.5-.98-.19-.29.02-1.1.33-1.41.77-.8,1.65-1.51,2.58-2.13.77-.52,2.23.39,2.19,1.28Z"/>
  <path d="M188.67,40.19c.75.57,1.45.87,1.73,1.39.17.32-.18,1.11-.52,1.48-.61.65-1.37,1.19-2.12,1.7-1.02.69-1.69-.06-2.35-.7-.81-.79-.05-1.29.42-1.7.85-.75,1.81-1.39,2.83-2.17Z"/>
  <path d="M165.51,56.61c-.06,1.43-1.98,3.19-3.01,2.93-.62-.15-1.4-.82-1.56-1.41-.26-.95,2.21-3.48,2.99-3.13.73.32,1.2,1.2,1.58,1.6Z"/>
  <path d="M60.29,64.7c.03.41.08.82.08,1.23,0,.75.39,1.71-.83,1.92-1.21.21-2.47.6-3.35-.71-.9-1.34-.6-2.27.87-2.88.61-.25,1.19-.56,1.79-.85.02-.22.03-.43.05-.65-.83-.25-1.85-.94-2.45-.68-2.84,1.22-5.1.52-7.04-1.74,2.07-1.22,4.43-1.43,6.84-1.01,6.47,1.15,9.67,4.43,9.19,10.62-.61,7.94-7.3,14.1-15.32,14.08-2.61,0-5.41-.47-7.8-1.49-6.15-2.63-8.65-9.91-3.47-16.54,1.69-2.17,3.84-3.87,6.52-4.82,1.42-.5,2.27-.28,2.79,1.29.52,1.58.58,2.88-.84,4.03-1.05.85-1.9,1.46-3.33.46-1.74-1.22-2.28-1-3.11,1.02-.66,1.61-1.37,3.3-1.5,4.99-.26,3.42,1.88,6.08,5.07,7.42,5.85,2.45,12.38-.07,15.74-4.37,1.94-2.48,2.97-5.5,2.04-8.77-.28-.98-.95-1.84-1.44-2.75-.17.06-.34.13-.51.19Z"/>
  <path d="M52.72,77.76c0,1.66-.54,2.21-2.19,2.22-1.91,0-3.43-.96-3.4-2.16.04-1.72,1.63-3.37,3.24-3.37,1.58,0,2.34,1.08,2.35,3.31Z"/>
  <path d="M46.07,74.48c.03,1.36-1.58,3.32-2.74,3.35-.98.02-2.46-1.62-2.49-2.77-.03-1.12,1.51-2.83,2.58-2.86,1.28-.03,2.63,1.13,2.66,2.28Z"/>
  <path d="M56.05,76.15c-.96-1.7-.57-4.51.8-5.22.68-.35,1.86-.12,2.65.23.61.27.97,1.13,1.43,1.73-.69.52-1.34,1.13-2.1,1.54-.38.21-.94.05-1.42.08-.92.05-2.05-.11-1.36,1.64Z"/>
  <path d="M40.58,69.79c.85-1.42,1.98-1.28,3.42-.73-.95,1.78-2.28.85-3.42.73Z"/>
  <path d="M71.91,37.5c-1.99-.01-3.83-2.02-3.82-4.18,0-1.52,1.89-3.55,3.35-3.6,1.52-.05,3.75,2.69,3.77,4.64.02,1.87-1.32,3.14-3.3,3.13Z"/>
  <path d="M83.68,37.77c-.02,1.95-1.36,3.35-3.14,3.31-1.51-.04-3-1.61-3.01-3.2-.02-1.9,1.71-4,3.28-3.97,1.52.03,2.9,1.87,2.88,3.85Z"/>
  <path d="M114.75,65.8c-1.97,1-3.02,3.52-3.06,5.9-.14,7,7.78,13.14,13.43,13.72,3.53.36,6.96.75,9.98-1.72.21-.17.79-.19.98-.03.22.19.38.8.24.99-.64.87-1.24,1.94-2.13,2.44-2.73,1.53-5.75,1.38-8.78,1.13-5.12-.42-9.16-2.97-12.6-6.48-3.44-3.51-4.8-7.89-3.7-12.72.67-2.94,2.53-5.18,5.55-6.19.34-.11.93-.28,1.06-.13,1.35,1.56,2.76,3.09,3.82,4.84.28.46-.42,2.02-1.05,2.38-.72.41-1.99.29-2.82-.08-.58-.25-.97-1.26-1.14-2-.15-.62.14-1.34.24-2.05Z"/>
  <path d="M128.25,81.43c.07-1.74,1.29-3,2.88-2.97,1.29.03,3.04,1.71,3,2.9-.04,1.18-1.97,2.55-3.48,2.47-1.47-.08-2.45-1.06-2.4-2.4Z"/>
  <path d="M114.17,74.76c.04-1.96.42-2.29,2.58-2.24,1.65.04,2.93,1.29,2.84,2.79-.07,1.23-1.51,2.27-3.07,2.22-1.56-.05-2.39-1.03-2.35-2.77Z"/>
  <path d="M122.21,78.34c1.57-.02,2.81,1.24,2.81,2.86,0,1.3-1.15,2.29-2.72,2.34-1.35.04-2.51-1.21-2.51-2.72,0-1.26,1.17-2.46,2.42-2.48Z"/>
  <path d="M173.63,106.24c-2.98-.71-5.96-1.42-9.04-2.15,2.11-1.64,2.8-1.65,4.82-.47,1.37.8,2.82,1.47,4.23,2.19,0,.14,0,.29,0,.43Z"/>
</svg>